<?xml version="1.0" encoding="utf-8" standalone="no"?>
<!DOCTYPE svg PUBLIC "-//W3C//DTD SVG 1.1//EN"
  "http://www.w3.org/Graphics/SVG/1.1/DTD/svg11.dtd">
<svg xmlns:xlink="http://www.w3.org/1999/xlink" width="1529.085156pt" height="2012.850234pt" viewBox="0 0 1529.085156 2012.850234" xmlns="http://www.w3.org/2000/svg" version="1.1">
 <metadata>
  <rdf:RDF xmlns:dc="http://purl.org/dc/elements/1.1/" xmlns:cc="http://creativecommons.org/ns#" xmlns:rdf="http://www.w3.org/1999/02/22-rdf-syntax-ns#">
   <cc:Work>
    <dc:type rdf:resource="http://purl.org/dc/dcmitype/StillImage"/>
    <dc:date>2024-02-10T17:59:10.234130</dc:date>
    <dc:format>image/svg+xml</dc:format>
    <dc:creator>
     <cc:Agent>
      <dc:title>Matplotlib v3.6.3, https://matplotlib.org/</dc:title>
     </cc:Agent>
    </dc:creator>
   </cc:Work>
  </rdf:RDF>
 </metadata>
 <defs>
  <style type="text/css">*{stroke-linejoin: round; stroke-linecap: butt}</style>
 </defs>
 <g id="figure_1">
  <g id="patch_1">
   <path d="M 0 2012.850234 
L 1529.085156 2012.850234 
L 1529.085156 -0 
L 0 -0 
z
" style="fill: #ffffff"/>
  </g>
  <g id="axes_1">
   <g id="patch_2">
    <path d="M 124.343203 672.48 
L 961.343203 672.48 
L 961.343203 7.2 
L 124.343203 7.2 
z
" style="fill: #f5f5f9"/>
   </g>
   <g id="matplotlib.axis_1">
    <g id="xtick_1">
     <g id="line2d_1">
      <path d="M 124.343203 672.48 
L 124.343203 7.2 
" clip-path="url(#p34cd039a0e)" style="fill: none; stroke: #ffffff; stroke-linecap: round"/>
     </g>
     <g id="text_1">
      <text style="fill: #262626; font: 38.5px 'arial'; text-anchor: middle" x="124.343203" y="709.537578" transform="rotate(-0 124.343203 709.537578)">0</text>
     </g>
    </g>
    <g id="xtick_2">
     <g id="line2d_2">
      <path d="M 328.489545 672.48 
L 328.489545 7.2 
" clip-path="url(#p34cd039a0e)" style="fill: none; stroke: #ffffff; stroke-linecap: round"/>
     </g>
     <g id="text_2">
      <text style="fill: #262626; font: 38.5px 'arial'; text-anchor: middle" x="328.489545" y="709.537578" transform="rotate(-0 328.489545 709.537578)">10</text>
     </g>
    </g>
    <g id="xtick_3">
     <g id="line2d_3">
      <path d="M 532.635886 672.48 
L 532.635886 7.2 
" clip-path="url(#p34cd039a0e)" style="fill: none; stroke: #ffffff; stroke-linecap: round"/>
     </g>
     <g id="text_3">
      <text style="fill: #262626; font: 38.5px 'arial'; text-anchor: middle" x="532.635886" y="709.537578" transform="rotate(-0 532.635886 709.537578)">20</text>
     </g>
    </g>
    <g id="xtick_4">
     <g id="line2d_4">
      <path d="M 736.782228 672.48 
L 736.782228 7.2 
" clip-path="url(#p34cd039a0e)" style="fill: none; stroke: #ffffff; stroke-linecap: round"/>
     </g>
     <g id="text_4">
      <text style="fill: #262626; font: 38.5px 'arial'; text-anchor: middle" x="736.782228" y="709.537578" transform="rotate(-0 736.782228 709.537578)">30</text>
     </g>
    </g>
    <g id="xtick_5">
     <g id="line2d_5">
      <path d="M 940.928569 672.48 
L 940.928569 7.2 
" clip-path="url(#p34cd039a0e)" style="fill: none; stroke: #ffffff; stroke-linecap: round"/>
     </g>
     <g id="text_5">
      <text style="fill: #262626; font: 38.5px 'arial'; text-anchor: middle" x="940.928569" y="709.537578" transform="rotate(-0 940.928569 709.537578)">40</text>
     </g>
    </g>
    <g id="text_6">
     <text style="fill: #262626; font: 42px 'arial'; text-anchor: middle" x="542.843203" y="751.252266" transform="rotate(-0 542.843203 751.252266)">Concentration</text>
    </g>
   </g>
   <g id="matplotlib.axis_2">
    <g id="ytick_1">
     <g id="line2d_6">
      <path d="M 124.343203 672.48 
L 961.343203 672.48 
" clip-path="url(#p34cd039a0e)" style="fill: none; stroke: #ffffff; stroke-linecap: round"/>
     </g>
     <g id="text_7">
      <text style="fill: #262626; font: 38.5px 'arial'; text-anchor: end" x="114.843203" y="686.258789" transform="rotate(-0 114.843203 686.258789)">0</text>
     </g>
    </g>
    <g id="ytick_2">
     <g id="line2d_7">
      <path d="M 124.343203 570.129231 
L 961.343203 570.129231 
" clip-path="url(#p34cd039a0e)" style="fill: none; stroke: #ffffff; stroke-linecap: round"/>
     </g>
     <g id="text_8">
      <text style="fill: #262626; font: 38.5px 'arial'; text-anchor: end" x="114.843203" y="583.90802" transform="rotate(-0 114.843203 583.90802)">20</text>
     </g>
    </g>
    <g id="ytick_3">
     <g id="line2d_8">
      <path d="M 124.343203 467.778462 
L 961.343203 467.778462 
" clip-path="url(#p34cd039a0e)" style="fill: none; stroke: #ffffff; stroke-linecap: round"/>
     </g>
     <g id="text_9">
      <text style="fill: #262626; font: 38.5px 'arial'; text-anchor: end" x="114.843203" y="481.557251" transform="rotate(-0 114.843203 481.557251)">40</text>
     </g>
    </g>
    <g id="ytick_4">
     <g id="line2d_9">
      <path d="M 124.343203 365.427692 
L 961.343203 365.427692 
" clip-path="url(#p34cd039a0e)" style="fill: none; stroke: #ffffff; stroke-linecap: round"/>
     </g>
     <g id="text_10">
      <text style="fill: #262626; font: 38.5px 'arial'; text-anchor: end" x="114.843203" y="379.206481" transform="rotate(-0 114.843203 379.206481)">60</text>
     </g>
    </g>
    <g id="ytick_5">
     <g id="line2d_10">
      <path d="M 124.343203 263.076923 
L 961.343203 263.076923 
" clip-path="url(#p34cd039a0e)" style="fill: none; stroke: #ffffff; stroke-linecap: round"/>
     </g>
     <g id="text_11">
      <text style="fill: #262626; font: 38.5px 'arial'; text-anchor: end" x="114.843203" y="276.855712" transform="rotate(-0 114.843203 276.855712)">80</text>
     </g>
    </g>
    <g id="ytick_6">
     <g id="line2d_11">
      <path d="M 124.343203 160.726154 
L 961.343203 160.726154 
" clip-path="url(#p34cd039a0e)" style="fill: none; stroke: #ffffff; stroke-linecap: round"/>
     </g>
     <g id="text_12">
      <text style="fill: #262626; font: 38.5px 'arial'; text-anchor: end" x="114.843203" y="174.504943" transform="rotate(-0 114.843203 174.504943)">100</text>
     </g>
    </g>
    <g id="ytick_7">
     <g id="line2d_12">
      <path d="M 124.343203 58.375385 
L 961.343203 58.375385 
" clip-path="url(#p34cd039a0e)" style="fill: none; stroke: #ffffff; stroke-linecap: round"/>
     </g>
     <g id="text_13">
      <text style="fill: #262626; font: 38.5px 'arial'; text-anchor: end" x="114.843203" y="72.154174" transform="rotate(-0 114.843203 72.154174)">120</text>
     </g>
    </g>
    <g id="text_14">
     <text style="fill: #262626; font: 42px 'arial'; text-anchor: middle" x="37.774688" y="339.84" transform="rotate(-90 37.774688 339.84)">Invasion efficiency (%) </text>
    </g>
   </g>
   <g id="PolyCollection_1"/>
   <g id="LineCollection_1"/>
   <g id="LineCollection_2"/>
   <g id="LineCollection_3"/>
   <g id="LineCollection_4"/>
   <g id="LineCollection_5"/>
   <g id="LineCollection_6"/>
   <g id="LineCollection_7"/>
   <g id="LineCollection_8"/>
   <g id="LineCollection_9"/>
   <g id="LineCollection_10"/>
   <g id="LineCollection_11"/>
   <g id="LineCollection_12"/>
   <g id="LineCollection_13"/>
   <g id="LineCollection_14"/>
   <g id="LineCollection_15"/>
   <g id="LineCollection_16"/>
   <g id="LineCollection_17"/>
   <g id="LineCollection_18"/>
   <g id="LineCollection_19"/>
   <g id="LineCollection_20"/>
   <g id="LineCollection_21"/>
   <g id="LineCollection_22">
    <path clip-path="url(#p34cd039a0e)" style="fill: none; stroke: #e459a5; stroke-width: 1.5"/>
    <path d="M 175.379788 342.927097 
L 175.379788 264.834447 
" clip-path="url(#p34cd039a0e)" style="fill: none; stroke: #e459a5; stroke-width: 1.5"/>
    <path d="M 226.416374 462.77573 
L 226.416374 351.383241 
" clip-path="url(#p34cd039a0e)" style="fill: none; stroke: #e459a5; stroke-width: 1.5"/>
    <path d="M 328.489545 501.301427 
L 328.489545 466.171351 
" clip-path="url(#p34cd039a0e)" style="fill: none; stroke: #e459a5; stroke-width: 1.5"/>
    <path d="M 532.635886 549.658608 
L 532.635886 521.997628 
" clip-path="url(#p34cd039a0e)" style="fill: none; stroke: #e459a5; stroke-width: 1.5"/>
    <path d="M 940.928569 571.46457 
L 940.928569 513.287574 
" clip-path="url(#p34cd039a0e)" style="fill: none; stroke: #e459a5; stroke-width: 1.5"/>
   </g>
   <g id="line2d_13">
    <defs>
     <path id="m4f9018ed28" d="M 4 0 
L -4 -0 
" style="stroke: #e459a5"/>
    </defs>
    <g clip-path="url(#p34cd039a0e)">
     <use xlink:href="#m4f9018ed28" x="175.379788" y="342.927097" style="fill: #e459a5; stroke: #e459a5"/>
     <use xlink:href="#m4f9018ed28" x="226.416374" y="462.77573" style="fill: #e459a5; stroke: #e459a5"/>
     <use xlink:href="#m4f9018ed28" x="328.489545" y="501.301427" style="fill: #e459a5; stroke: #e459a5"/>
     <use xlink:href="#m4f9018ed28" x="532.635886" y="549.658608" style="fill: #e459a5; stroke: #e459a5"/>
     <use xlink:href="#m4f9018ed28" x="940.928569" y="571.46457" style="fill: #e459a5; stroke: #e459a5"/>
    </g>
   </g>
   <g id="line2d_14">
    <g clip-path="url(#p34cd039a0e)">
     <use xlink:href="#m4f9018ed28" x="175.379788" y="264.834447" style="fill: #e459a5; stroke: #e459a5"/>
     <use xlink:href="#m4f9018ed28" x="226.416374" y="351.383241" style="fill: #e459a5; stroke: #e459a5"/>
     <use xlink:href="#m4f9018ed28" x="328.489545" y="466.171351" style="fill: #e459a5; stroke: #e459a5"/>
     <use xlink:href="#m4f9018ed28" x="532.635886" y="521.997628" style="fill: #e459a5; stroke: #e459a5"/>
     <use xlink:href="#m4f9018ed28" x="940.928569" y="513.287574" style="fill: #e459a5; stroke: #e459a5"/>
    </g>
   </g>
   <g id="LineCollection_23"/>
   <g id="LineCollection_24"/>
   <g id="LineCollection_25"/>
   <g id="LineCollection_26"/>
   <g id="LineCollection_27"/>
   <g id="LineCollection_28"/>
   <g id="LineCollection_29"/>
   <g id="LineCollection_30"/>
   <g id="LineCollection_31"/>
   <g id="LineCollection_32"/>
   <g id="LineCollection_33"/>
   <g id="LineCollection_34"/>
   <g id="line2d_15">
    <path d="M 124.343203 160.726154 
L 175.379788 303.880772 
L 226.416374 407.079486 
L 328.489545 483.736389 
L 532.635886 535.828118 
L 940.928569 542.376072 
" clip-path="url(#p34cd039a0e)" style="fill: none; stroke: #e459a5; stroke-width: 3; stroke-linecap: round"/>
    <defs>
     <path id="m2759449abd" d="M 0 7.5 
C 1.989023 7.5 3.896849 6.709753 5.303301 5.303301 
C 6.709753 3.896849 7.5 1.989023 7.5 0 
C 7.5 -1.989023 6.709753 -3.896849 5.303301 -5.303301 
C 3.896849 -6.709753 1.989023 -7.5 0 -7.5 
C -1.989023 -7.5 -3.896849 -6.709753 -5.303301 -5.303301 
C -6.709753 -3.896849 -7.5 -1.989023 -7.5 0 
C -7.5 1.989023 -6.709753 3.896849 -5.303301 5.303301 
C -3.896849 6.709753 -1.989023 7.5 0 7.5 
z
" style="stroke: #ffffff; stroke-width: 0.75"/>
    </defs>
    <g clip-path="url(#p34cd039a0e)">
     <use xlink:href="#m2759449abd" x="124.343203" y="160.726154" style="fill: #e459a5; stroke: #ffffff; stroke-width: 0.75"/>
     <use xlink:href="#m2759449abd" x="175.379788" y="303.880772" style="fill: #e459a5; stroke: #ffffff; stroke-width: 0.75"/>
     <use xlink:href="#m2759449abd" x="226.416374" y="407.079486" style="fill: #e459a5; stroke: #ffffff; stroke-width: 0.75"/>
     <use xlink:href="#m2759449abd" x="328.489545" y="483.736389" style="fill: #e459a5; stroke: #ffffff; stroke-width: 0.75"/>
     <use xlink:href="#m2759449abd" x="532.635886" y="535.828118" style="fill: #e459a5; stroke: #ffffff; stroke-width: 0.75"/>
     <use xlink:href="#m2759449abd" x="940.928569" y="542.376072" style="fill: #e459a5; stroke: #ffffff; stroke-width: 0.75"/>
    </g>
   </g>
   <g id="line2d_16"/>
   <g id="line2d_17"/>
   <g id="line2d_18"/>
   <g id="line2d_19"/>
   <g id="line2d_20"/>
   <g id="line2d_21"/>
   <g id="line2d_22"/>
   <g id="line2d_23"/>
   <g id="line2d_24"/>
   <g id="line2d_25"/>
   <g id="line2d_26"/>
   <g id="line2d_27"/>
   <g id="line2d_28"/>
   <g id="line2d_29"/>
   <g id="line2d_30"/>
   <g id="line2d_31"/>
   <g id="line2d_32"/>
   <g id="line2d_33"/>
   <g id="line2d_34"/>
   <g id="line2d_35"/>
   <g id="line2d_36"/>
   <g id="line2d_37"/>
   <g id="line2d_38">
    <path d="M 124.343203 160.726154 
L 175.379788 303.880772 
L 226.416374 407.079486 
L 328.489545 483.736389 
L 532.635886 535.828118 
L 940.928569 542.376072 
" clip-path="url(#p34cd039a0e)" style="fill: none; stroke: #e459a5; stroke-width: 1.5; stroke-linecap: round"/>
    <defs>
     <path id="mb85dccb9b4" d="M -3 3 
L 3 -3 
M -3 -3 
L 3 3 
" style="stroke: #e459a5"/>
    </defs>
    <g clip-path="url(#p34cd039a0e)">
     <use xlink:href="#mb85dccb9b4" x="124.343203" y="160.726154" style="fill: #e459a5; stroke: #e459a5"/>
     <use xlink:href="#mb85dccb9b4" x="175.379788" y="303.880772" style="fill: #e459a5; stroke: #e459a5"/>
     <use xlink:href="#mb85dccb9b4" x="226.416374" y="407.079486" style="fill: #e459a5; stroke: #e459a5"/>
     <use xlink:href="#mb85dccb9b4" x="328.489545" y="483.736389" style="fill: #e459a5; stroke: #e459a5"/>
     <use xlink:href="#mb85dccb9b4" x="532.635886" y="535.828118" style="fill: #e459a5; stroke: #e459a5"/>
     <use xlink:href="#mb85dccb9b4" x="940.928569" y="542.376072" style="fill: #e459a5; stroke: #e459a5"/>
    </g>
   </g>
   <g id="line2d_39"/>
   <g id="line2d_40"/>
   <g id="line2d_41"/>
   <g id="line2d_42"/>
   <g id="line2d_43"/>
   <g id="line2d_44"/>
   <g id="line2d_45"/>
   <g id="line2d_46"/>
   <g id="line2d_47"/>
   <g id="line2d_48"/>
   <g id="line2d_49"/>
   <g id="line2d_50"/>
   <g id="patch_3">
    <path d="M 124.343203 672.48 
L 124.343203 7.2 
" style="fill: none; stroke: #ffffff; stroke-width: 1.25; stroke-linejoin: miter; stroke-linecap: square"/>
   </g>
   <g id="patch_4">
    <path d="M 961.343203 672.48 
L 961.343203 7.2 
" style="fill: none; stroke: #ffffff; stroke-width: 1.25; stroke-linejoin: miter; stroke-linecap: square"/>
   </g>
   <g id="patch_5">
    <path d="M 124.343203 672.48 
L 961.343203 672.48 
" style="fill: none; stroke: #ffffff; stroke-width: 1.25; stroke-linejoin: miter; stroke-linecap: square"/>
   </g>
   <g id="patch_6">
    <path d="M 124.343203 7.2 
L 961.343203 7.2 
" style="fill: none; stroke: #ffffff; stroke-width: 1.25; stroke-linejoin: miter; stroke-linecap: square"/>
   </g>
   <g id="legend_1">
    <g id="patch_7">
     <path d="M 988.293203 2005.650234 
L 1514.185156 2005.650234 
Q 1521.885156 2005.650234 1521.885156 1997.950234 
L 1521.885156 34.15 
Q 1521.885156 26.45 1514.185156 26.45 
L 988.293203 26.45 
Q 980.593203 26.45 980.593203 34.15 
L 980.593203 1997.950234 
Q 980.593203 2005.650234 988.293203 2005.650234 
z
" style="fill: #f5f5f9; opacity: 0.8; stroke: #cccccc; stroke-linejoin: miter"/>
    </g>
    <g id="text_15">
     <text style="fill: #262626; font: 42px 'arial'; text-anchor: start" x="1163.685586" y="71.912812" transform="rotate(-0 1163.685586 71.912812)">Antibody </text>
    </g>
    <g id="line2d_51">
     <path d="M 995.993203 114.085078 
L 1034.493203 114.085078 
L 1072.993203 114.085078 
" style="fill: none; stroke: #e459a5; stroke-width: 1.5; stroke-linecap: round"/>
     <defs>
      <path id="m478b723c53" d="M 0 3 
C 0.795609 3 1.55874 2.683901 2.12132 2.12132 
C 2.683901 1.55874 3 0.795609 3 0 
C 3 -0.795609 2.683901 -1.55874 2.12132 -2.12132 
C 1.55874 -2.683901 0.795609 -3 0 -3 
C -0.795609 -3 -1.55874 -2.683901 -2.12132 -2.12132 
C -2.683901 -1.55874 -3 -0.795609 -3 0 
C -3 0.795609 -2.683901 1.55874 -2.12132 2.12132 
C -1.55874 2.683901 -0.795609 3 0 3 
z
" style="stroke: #e459a5"/>
     </defs>
     <g>
      <use xlink:href="#m478b723c53" x="1034.493203" y="114.085078" style="fill: #e459a5; stroke: #e459a5"/>
     </g>
    </g>
    <g id="text_16">
     <text style="fill: #262626; font: 38.5px 'arial'; text-anchor: start" x="1103.793203" y="127.560078" transform="rotate(-0 1103.793203 127.560078)">R1</text>
    </g>
    <g id="line2d_52">
     <path d="M 995.993203 168.544531 
L 1072.993203 168.544531 
" style="fill: none; stroke: #043546; stroke-width: 1.5"/>
    </g>
    <g id="text_17">
     <text style="fill: #262626; font: 38.5px 'arial'; text-anchor: start" x="1103.793203" y="182.019531" transform="rotate(-0 1103.793203 182.019531)">NF54</text>
    </g>
    <g id="line2d_53">
     <path d="M 995.993203 223.118281 
L 1072.993203 223.118281 
" style="fill: none; stroke: #818897; stroke-width: 1.5"/>
    </g>
    <g id="text_18">
     <text style="fill: #262626; font: 38.5px 'arial'; text-anchor: start" x="1103.793203" y="236.593281" transform="rotate(-0 1103.793203 236.593281)">Heparin 50</text>
    </g>
    <g id="line2d_54">
     <path d="M 995.993203 277.577734 
L 1072.993203 277.577734 
" style="fill: none; stroke: #818897; stroke-width: 1.5"/>
    </g>
    <g id="text_19">
     <text style="fill: #262626; font: 38.5px 'arial'; text-anchor: start" x="1103.793203" y="291.052734" transform="rotate(-0 1103.793203 291.052734)">3D7</text>
    </g>
    <g id="line2d_55">
     <path d="M 995.993203 332.506406 
L 1072.993203 332.506406 
" style="fill: none; stroke: #818897; stroke-width: 1.5"/>
    </g>
    <g id="text_20">
     <text style="fill: #262626; font: 38.5px 'arial'; text-anchor: start" x="1103.793203" y="345.981406" transform="rotate(-0 1103.793203 345.981406)">3D7 (viola)</text>
    </g>
    <g id="line2d_56">
     <path d="M 995.993203 387.417031 
L 1072.993203 387.417031 
" style="fill: none; stroke: #406a7d; stroke-width: 1.5"/>
    </g>
    <g id="text_21">
     <text style="fill: #262626; font: 38.5px 'arial'; text-anchor: start" x="1103.793203" y="400.892031" transform="rotate(-0 1103.793203 400.892031)">KOP230P</text>
    </g>
    <g id="line2d_57">
     <path d="M 995.993203 441.876484 
L 1072.993203 441.876484 
" style="fill: none; stroke: #78a3b9; stroke-width: 1.5"/>
    </g>
    <g id="text_22">
     <text style="fill: #262626; font: 38.5px 'arial'; text-anchor: start" x="1103.793203" y="455.351484" transform="rotate(-0 1103.793203 455.351484)">KOPfs25</text>
    </g>
    <g id="line2d_58">
     <path d="M 995.993203 496.335937 
L 1072.993203 496.335937 
" style="fill: none; stroke: #9eca69; stroke-width: 1.5"/>
    </g>
    <g id="text_23">
     <text style="fill: #262626; font: 38.5px 'arial'; text-anchor: start" x="1103.793203" y="509.810937" transform="rotate(-0 1103.793203 509.810937)">KOEBA140</text>
    </g>
    <g id="line2d_59">
     <path d="M 995.993203 550.795391 
L 1072.993203 550.795391 
" style="fill: none; stroke: #486737; stroke-width: 1.5"/>
    </g>
    <g id="text_24">
     <text style="fill: #262626; font: 38.5px 'arial'; text-anchor: start" x="1103.793203" y="564.270391" transform="rotate(-0 1103.793203 564.270391)">KOEBA181</text>
    </g>
    <g id="line2d_60">
     <path d="M 995.993203 605.254844 
L 1072.993203 605.254844 
" style="fill: none; stroke: #6ab997; stroke-width: 1.5"/>
    </g>
    <g id="text_25">
     <text style="fill: #262626; font: 38.5px 'arial'; text-anchor: start" x="1103.793203" y="618.729844" transform="rotate(-0 1103.793203 618.729844)">KOEBA175</text>
    </g>
    <g id="line2d_61">
     <path d="M 995.993203 659.714297 
L 1072.993203 659.714297 
" style="fill: none; stroke: #04a0af; stroke-width: 1.5"/>
    </g>
    <g id="text_26">
     <text style="fill: #262626; font: 38.5px 'arial'; text-anchor: start" x="1103.793203" y="673.189297" transform="rotate(-0 1103.793203 673.189297)">KOEBA175+Anti-GYPA</text>
    </g>
    <g id="line2d_62">
     <path d="M 995.993203 714.17375 
L 1072.993203 714.17375 
" style="fill: none; stroke: #f1af23; stroke-width: 1.5"/>
    </g>
    <g id="text_27">
     <text style="fill: #262626; font: 38.5px 'arial'; text-anchor: start" x="1103.793203" y="727.64875" transform="rotate(-0 1103.793203 727.64875)">KORH1</text>
    </g>
    <g id="line2d_63">
     <path d="M 995.993203 768.633203 
L 1072.993203 768.633203 
" style="fill: none; stroke: #e8513e; stroke-width: 1.5"/>
    </g>
    <g id="text_28">
     <text style="fill: #262626; font: 38.5px 'arial'; text-anchor: start" x="1103.793203" y="782.108203" transform="rotate(-0 1103.793203 782.108203)">KORH4</text>
    </g>
    <g id="line2d_64">
     <path d="M 995.993203 823.092656 
L 1072.993203 823.092656 
" style="fill: none; stroke: #ed8626; stroke-width: 1.5"/>
    </g>
    <g id="text_29">
     <text style="fill: #262626; font: 38.5px 'arial'; text-anchor: start" x="1103.793203" y="836.567656" transform="rotate(-0 1103.793203 836.567656)">KORh2a</text>
    </g>
    <g id="line2d_65">
     <path d="M 995.993203 877.552109 
L 1072.993203 877.552109 
" style="fill: none; stroke: #ed8626; stroke-width: 1.5"/>
    </g>
    <g id="text_30">
     <text style="fill: #262626; font: 38.5px 'arial'; text-anchor: start" x="1103.793203" y="891.027109" transform="rotate(-0 1103.793203 891.027109)">KORH2a</text>
    </g>
    <g id="line2d_66">
     <path d="M 995.993203 932.011562 
L 1072.993203 932.011562 
" style="fill: none; stroke: #bebfbc; stroke-width: 1.5"/>
    </g>
    <g id="text_31">
     <text style="fill: #262626; font: 38.5px 'arial'; text-anchor: start" x="1103.793203" y="945.486562" transform="rotate(-0 1103.793203 945.486562)">Barseq</text>
    </g>
    <g id="line2d_67">
     <path d="M 995.993203 986.471016 
L 1072.993203 986.471016 
" style="fill: none; stroke: #ffd086; stroke-width: 1.5"/>
    </g>
    <g id="text_32">
     <text style="fill: #262626; font: 38.5px 'arial'; text-anchor: start" x="1103.793203" y="999.946016" transform="rotate(-0 1103.793203 999.946016)">cKOMSP1</text>
    </g>
    <g id="line2d_68">
     <path d="M 995.993203 1040.930469 
L 1072.993203 1040.930469 
" style="fill: none; stroke: #ffd086; stroke-width: 1.5"/>
    </g>
    <g id="text_33">
     <text style="fill: #262626; font: 38.5px 'arial'; text-anchor: start" x="1103.793203" y="1054.405469" transform="rotate(-0 1103.793203 1054.405469)">cKOMSP1 DMSO</text>
    </g>
    <g id="line2d_69">
     <path d="M 995.993203 1095.883203 
L 1072.993203 1095.883203 
" style="fill: none; stroke: #ffd086; stroke-width: 1.5"/>
    </g>
    <g id="text_34">
     <text style="fill: #262626; font: 38.5px 'arial'; text-anchor: start" x="1103.793203" y="1109.358203" transform="rotate(-0 1103.793203 1109.358203)">cKOMSP1 Rap</text>
    </g>
    <g id="line2d_70">
     <path d="M 995.993203 1150.342656 
L 1072.993203 1150.342656 
" style="fill: none; stroke: #abdc29; stroke-width: 1.5"/>
    </g>
    <g id="text_35">
     <text style="fill: #262626; font: 38.5px 'arial'; text-anchor: start" x="1103.793203" y="1163.817656" transform="rotate(-0 1103.793203 1163.817656)">Neuraminidase</text>
    </g>
    <g id="line2d_71">
     <path d="M 995.993203 1204.802109 
L 1072.993203 1204.802109 
" style="fill: none; stroke: #97b6da; stroke-width: 1.5"/>
    </g>
    <g id="text_36">
     <text style="fill: #262626; font: 38.5px 'arial'; text-anchor: start" x="1103.793203" y="1218.277109" transform="rotate(-0 1103.793203 1218.277109)">Anti-CD55</text>
    </g>
    <g id="line2d_72">
     <path d="M 995.993203 1259.261562 
L 1072.993203 1259.261562 
" style="fill: none; stroke: #91d4cf; stroke-width: 1.5"/>
    </g>
    <g id="text_37">
     <text style="fill: #262626; font: 38.5px 'arial'; text-anchor: start" x="1103.793203" y="1272.736562" transform="rotate(-0 1103.793203 1272.736562)">Anti-GYPA</text>
    </g>
    <g id="line2d_73">
     <path d="M 995.993203 1313.721016 
L 1072.993203 1313.721016 
" style="fill: none; stroke: #e459a5; stroke-width: 1.5"/>
    </g>
    <g id="text_38">
     <text style="fill: #262626; font: 38.5px 'arial'; text-anchor: start" x="1103.793203" y="1327.196016" transform="rotate(-0 1103.793203 1327.196016)">R1</text>
    </g>
    <g id="line2d_74">
     <path d="M 995.993203 1368.180469 
L 1072.993203 1368.180469 
" style="fill: none; stroke: #35beb4; stroke-width: 1.5"/>
    </g>
    <g id="text_39">
     <text style="fill: #262626; font: 38.5px 'arial'; text-anchor: start" x="1103.793203" y="1381.655469" transform="rotate(-0 1103.793203 1381.655469)">Anti-GYPC</text>
    </g>
    <g id="line2d_75">
     <path d="M 995.993203 1422.639922 
L 1072.993203 1422.639922 
" style="fill: none; stroke: #c6545e; stroke-width: 1.5"/>
    </g>
    <g id="text_40">
     <text style="fill: #262626; font: 38.5px 'arial'; text-anchor: start" x="1103.793203" y="1436.114922" transform="rotate(-0 1103.793203 1436.114922)">Anti-CR1 ab25</text>
    </g>
    <g id="line2d_76">
     <path d="M 995.993203 1477.099375 
L 1072.993203 1477.099375 
" style="fill: none; stroke: #c6545e; stroke-width: 1.5"/>
    </g>
    <g id="text_41">
     <text style="fill: #262626; font: 38.5px 'arial'; text-anchor: start" x="1103.793203" y="1490.574375" transform="rotate(-0 1103.793203 1490.574375)">Anti-CR1 ABIN</text>
    </g>
    <g id="line2d_77">
     <path d="M 995.993203 1531.558828 
L 1072.993203 1531.558828 
" style="fill: none; stroke: #c6545e; stroke-width: 1.5"/>
    </g>
    <g id="text_42">
     <text style="fill: #262626; font: 38.5px 'arial'; text-anchor: start" x="1103.793203" y="1545.033828" transform="rotate(-0 1103.793203 1545.033828)">Anti-CR1</text>
    </g>
    <g id="line2d_78">
     <path d="M 995.993203 1586.018281 
L 1072.993203 1586.018281 
" style="fill: none; stroke: #7e7c9c; stroke-width: 1.5"/>
    </g>
    <g id="text_43">
     <text style="fill: #262626; font: 38.5px 'arial'; text-anchor: start" x="1103.793203" y="1599.493281" transform="rotate(-0 1103.793203 1599.493281)">Anti-Basigin</text>
    </g>
    <g id="line2d_79">
     <path d="M 995.993203 1640.928906 
L 1072.993203 1640.928906 
" style="fill: none; stroke: #7e7c9c; stroke-width: 1.5"/>
    </g>
    <g id="text_44">
     <text style="fill: #262626; font: 38.5px 'arial'; text-anchor: start" x="1103.793203" y="1654.403906" transform="rotate(-0 1103.793203 1654.403906)">Anti-Basigin </text>
    </g>
    <g id="line2d_80">
     <path d="M 995.993203 1695.839531 
L 1072.993203 1695.839531 
" style="fill: none; stroke: #81132c; stroke-width: 1.5"/>
    </g>
    <g id="text_45">
     <text style="fill: #262626; font: 38.5px 'arial'; text-anchor: start" x="1103.793203" y="1709.314531" transform="rotate(-0 1103.793203 1709.314531)">cKOGAP45</text>
    </g>
    <g id="line2d_81">
     <path d="M 995.993203 1750.298984 
L 1072.993203 1750.298984 
" style="fill: none; stroke: #81132c; stroke-width: 1.5"/>
    </g>
    <g id="text_46">
     <text style="fill: #262626; font: 38.5px 'arial'; text-anchor: start" x="1103.793203" y="1763.773984" transform="rotate(-0 1103.793203 1763.773984)">cKOGAP45 DMSO</text>
    </g>
    <g id="line2d_82">
     <path d="M 995.993203 1805.251719 
L 1072.993203 1805.251719 
" style="fill: none; stroke: #81132c; stroke-width: 1.5"/>
    </g>
    <g id="text_47">
     <text style="fill: #262626; font: 38.5px 'arial'; text-anchor: start" x="1103.793203" y="1818.726719" transform="rotate(-0 1103.793203 1818.726719)">cKOGAP45 Rap</text>
    </g>
    <g id="line2d_83">
     <path d="M 995.993203 1859.711172 
L 1072.993203 1859.711172 
" style="fill: none; stroke: #35a8cd; stroke-width: 1.5"/>
    </g>
    <g id="text_48">
     <text style="fill: #262626; font: 38.5px 'arial'; text-anchor: start" x="1103.793203" y="1873.186172" transform="rotate(-0 1103.793203 1873.186172)">cKOAMA1</text>
    </g>
    <g id="line2d_84">
     <path d="M 995.993203 1914.170625 
L 1072.993203 1914.170625 
" style="fill: none; stroke: #cc889d; stroke-width: 1.5"/>
    </g>
    <g id="text_49">
     <text style="fill: #262626; font: 38.5px 'arial'; text-anchor: start" x="1103.793203" y="1927.645625" transform="rotate(-0 1103.793203 1927.645625)">cKOAMA1 DMSO</text>
    </g>
    <g id="line2d_85">
     <path d="M 995.993203 1969.123359 
L 1072.993203 1969.123359 
" style="fill: none; stroke: #cc889d; stroke-width: 1.5"/>
    </g>
    <g id="text_50">
     <text style="fill: #262626; font: 38.5px 'arial'; text-anchor: start" x="1103.793203" y="1982.598359" transform="rotate(-0 1103.793203 1982.598359)">cKOAMA1 Rap</text>
    </g>
   </g>
  </g>
 </g>
 <defs>
  <clipPath id="p34cd039a0e">
   <rect x="124.343203" y="7.2" width="837" height="665.28"/>
  </clipPath>
 </defs>
</svg>
