<?xml version="1.0" encoding="utf-8" standalone="no"?>
<!DOCTYPE svg PUBLIC "-//W3C//DTD SVG 1.1//EN"
  "http://www.w3.org/Graphics/SVG/1.1/DTD/svg11.dtd">
<svg xmlns:xlink="http://www.w3.org/1999/xlink" width="1310.447266pt" height="1190.544922pt" viewBox="0 0 1310.447266 1190.544922" xmlns="http://www.w3.org/2000/svg" version="1.1">
 <metadata>
  <rdf:RDF xmlns:dc="http://purl.org/dc/elements/1.1/" xmlns:cc="http://creativecommons.org/ns#" xmlns:rdf="http://www.w3.org/1999/02/22-rdf-syntax-ns#">
   <cc:Work>
    <dc:type rdf:resource="http://purl.org/dc/dcmitype/StillImage"/>
    <dc:date>2024-02-10T18:07:43.443567</dc:date>
    <dc:format>image/svg+xml</dc:format>
    <dc:creator>
     <cc:Agent>
      <dc:title>Matplotlib v3.6.3, https://matplotlib.org/</dc:title>
     </cc:Agent>
    </dc:creator>
   </cc:Work>
  </rdf:RDF>
 </metadata>
 <defs>
  <style type="text/css">*{stroke-linejoin: round; stroke-linecap: butt}</style>
 </defs>
 <g id="figure_1">
  <g id="patch_1">
   <path d="M 0 1190.544922 
L 1310.447266 1190.544922 
L 1310.447266 0 
L 0 0 
z
" style="fill: #ffffff"/>
  </g>
  <g id="axes_1">
   <g id="patch_2">
    <path d="M 102.933594 672.48 
L 939.933594 672.48 
L 939.933594 7.2 
L 102.933594 7.2 
z
" style="fill: #f5f5f9"/>
   </g>
   <g id="matplotlib.axis_1">
    <g id="xtick_1">
     <g id="line2d_1">
      <path d="M 102.933594 672.48 
L 102.933594 7.2 
" clip-path="url(#p93d96511e1)" style="fill: none; stroke: #ffffff; stroke-linecap: round"/>
     </g>
     <g id="text_1">
      <text style="fill: #262626; font: 38.5px 'arial'; text-anchor: middle" x="102.933594" y="709.537578" transform="rotate(-0 102.933594 709.537578)">0</text>
     </g>
    </g>
    <g id="xtick_2">
     <g id="line2d_2">
      <path d="M 293.160866 672.48 
L 293.160866 7.2 
" clip-path="url(#p93d96511e1)" style="fill: none; stroke: #ffffff; stroke-linecap: round"/>
     </g>
     <g id="text_2">
      <text style="fill: #262626; font: 38.5px 'arial'; text-anchor: middle" x="293.160866" y="709.537578" transform="rotate(-0 293.160866 709.537578)">50</text>
     </g>
    </g>
    <g id="xtick_3">
     <g id="line2d_3">
      <path d="M 483.388139 672.48 
L 483.388139 7.2 
" clip-path="url(#p93d96511e1)" style="fill: none; stroke: #ffffff; stroke-linecap: round"/>
     </g>
     <g id="text_3">
      <text style="fill: #262626; font: 38.5px 'arial'; text-anchor: middle" x="483.388139" y="709.537578" transform="rotate(-0 483.388139 709.537578)">100</text>
     </g>
    </g>
    <g id="xtick_4">
     <g id="line2d_4">
      <path d="M 673.615412 672.48 
L 673.615412 7.2 
" clip-path="url(#p93d96511e1)" style="fill: none; stroke: #ffffff; stroke-linecap: round"/>
     </g>
     <g id="text_4">
      <text style="fill: #262626; font: 38.5px 'arial'; text-anchor: middle" x="673.615412" y="709.537578" transform="rotate(-0 673.615412 709.537578)">150</text>
     </g>
    </g>
    <g id="xtick_5">
     <g id="line2d_5">
      <path d="M 863.842685 672.48 
L 863.842685 7.2 
" clip-path="url(#p93d96511e1)" style="fill: none; stroke: #ffffff; stroke-linecap: round"/>
     </g>
     <g id="text_5">
      <text style="fill: #262626; font: 38.5px 'arial'; text-anchor: middle" x="863.842685" y="709.537578" transform="rotate(-0 863.842685 709.537578)">200</text>
     </g>
    </g>
    <g id="text_6">
     <text style="fill: #262626; font: 42px 'arial'; text-anchor: middle" x="521.433594" y="751.764141" transform="rotate(-0 521.433594 751.764141)">Time after egress (sec)  </text>
    </g>
   </g>
   <g id="matplotlib.axis_2">
    <g id="ytick_1">
     <g id="line2d_6">
      <path d="M 102.933594 672.48 
L 939.933594 672.48 
" clip-path="url(#p93d96511e1)" style="fill: none; stroke: #ffffff; stroke-linecap: round"/>
     </g>
     <g id="text_7">
      <text style="fill: #262626; font: 38.5px 'arial'; text-anchor: end" x="93.433594" y="686.258789" transform="rotate(-0 93.433594 686.258789)">0</text>
     </g>
    </g>
    <g id="ytick_2">
     <g id="line2d_7">
      <path d="M 102.933594 524.64 
L 939.933594 524.64 
" clip-path="url(#p93d96511e1)" style="fill: none; stroke: #ffffff; stroke-linecap: round"/>
     </g>
     <g id="text_8">
      <text style="fill: #262626; font: 38.5px 'arial'; text-anchor: end" x="93.433594" y="538.418789" transform="rotate(-0 93.433594 538.418789)">20</text>
     </g>
    </g>
    <g id="ytick_3">
     <g id="line2d_8">
      <path d="M 102.933594 376.8 
L 939.933594 376.8 
" clip-path="url(#p93d96511e1)" style="fill: none; stroke: #ffffff; stroke-linecap: round"/>
     </g>
     <g id="text_9">
      <text style="fill: #262626; font: 38.5px 'arial'; text-anchor: end" x="93.433594" y="390.578789" transform="rotate(-0 93.433594 390.578789)">40</text>
     </g>
    </g>
    <g id="ytick_4">
     <g id="line2d_9">
      <path d="M 102.933594 228.96 
L 939.933594 228.96 
" clip-path="url(#p93d96511e1)" style="fill: none; stroke: #ffffff; stroke-linecap: round"/>
     </g>
     <g id="text_10">
      <text style="fill: #262626; font: 38.5px 'arial'; text-anchor: end" x="93.433594" y="242.738789" transform="rotate(-0 93.433594 242.738789)">60</text>
     </g>
    </g>
    <g id="ytick_5">
     <g id="line2d_10">
      <path d="M 102.933594 81.12 
L 939.933594 81.12 
" clip-path="url(#p93d96511e1)" style="fill: none; stroke: #ffffff; stroke-linecap: round"/>
     </g>
     <g id="text_11">
      <text style="fill: #262626; font: 38.5px 'arial'; text-anchor: end" x="93.433594" y="94.898789" transform="rotate(-0 93.433594 94.898789)">80</text>
     </g>
    </g>
    <g id="text_12">
     <text style="fill: #262626; font: 42px 'arial'; text-anchor: middle" x="37.774688" y="339.84" transform="rotate(-90 37.774688 339.84)">Detachment Force (pN)</text>
    </g>
   </g>
   <g id="PolyCollection_1"/>
   <g id="PolyCollection_2"/>
   <g id="PolyCollection_3"/>
   <g id="PolyCollection_4"/>
   <g id="PolyCollection_5"/>
   <g id="PolyCollection_6"/>
   <g id="PolyCollection_7"/>
   <g id="PolyCollection_8"/>
   <g id="PolyCollection_9"/>
   <g id="PolyCollection_10"/>
   <g id="PolyCollection_11"/>
   <g id="PolyCollection_12">
    <defs>
     <path id="m65ea367550" d="M 457.707457 -952.155997 
L 457.707457 -624.455139 
L 457.707457 -952.155997 
L 457.707457 -952.155997 
z
" style="stroke: #81132c; stroke-opacity: 0.2"/>
    </defs>
    <g clip-path="url(#p93d96511e1)">
     <use xlink:href="#m65ea367550" x="0" y="1190.544922" style="fill: #81132c; fill-opacity: 0.2; stroke: #81132c; stroke-opacity: 0.2"/>
    </g>
   </g>
   <g id="PolyCollection_13"/>
   <g id="PolyCollection_14"/>
   <g id="PolyCollection_15"/>
   <g id="line2d_11">
    <path d="M 367.806048 450.133652 
L 503.742457 588.990435 
L 563.473821 547.202498 
L 777.898003 506.047494 
" clip-path="url(#p93d96511e1)" style="fill: none; stroke: #043546; stroke-width: 3; stroke-linecap: round"/>
    <defs>
     <path id="ma7e727ee03" d="M 0 10 
C 2.652031 10 5.195799 8.946337 7.071068 7.071068 
C 8.946337 5.195799 10 2.652031 10 0 
C 10 -2.652031 8.946337 -5.195799 7.071068 -7.071068 
C 5.195799 -8.946337 2.652031 -10 0 -10 
C -2.652031 -10 -5.195799 -8.946337 -7.071068 -7.071068 
C -8.946337 -5.195799 -10 -2.652031 -10 0 
C -10 2.652031 -8.946337 5.195799 -7.071068 7.071068 
C -5.195799 8.946337 -2.652031 10 0 10 
z
" style="stroke: #ffffff; stroke-width: 0.75"/>
    </defs>
    <g clip-path="url(#p93d96511e1)">
     <use xlink:href="#ma7e727ee03" x="367.806048" y="450.133652" style="fill: #043546; stroke: #ffffff; stroke-width: 0.75"/>
     <use xlink:href="#ma7e727ee03" x="503.742457" y="588.990435" style="fill: #043546; stroke: #ffffff; stroke-width: 0.75"/>
     <use xlink:href="#ma7e727ee03" x="563.473821" y="547.202498" style="fill: #043546; stroke: #ffffff; stroke-width: 0.75"/>
     <use xlink:href="#ma7e727ee03" x="777.898003" y="506.047494" style="fill: #043546; stroke: #ffffff; stroke-width: 0.75"/>
    </g>
   </g>
   <g id="line2d_12">
    <path d="M 322.874366 447.616306 
L 366.588594 445.501736 
L 431.494139 493.014836 
L 581.317139 594.269668 
L 616.395048 561.529791 
L 653.185003 528.358368 
L 718.851457 570.793623 
L 752.940185 596.168466 
L 822.068776 464.86372 
" clip-path="url(#p93d96511e1)" style="fill: none; stroke: #043546; stroke-width: 3; stroke-linecap: round"/>
    <defs>
     <path id="m799ab455ac" d="M -5 10 
L 0 5 
L 5 10 
L 10 5 
L 5 0 
L 10 -5 
L 5 -10 
L 0 -5 
L -5 -10 
L -10 -5 
L -5 0 
L -10 5 
z
" style="stroke: #ffffff; stroke-width: 0.75; stroke-linejoin: miter"/>
    </defs>
    <g clip-path="url(#p93d96511e1)">
     <use xlink:href="#m799ab455ac" x="322.874366" y="447.616306" style="fill: #043546; stroke: #ffffff; stroke-width: 0.75; stroke-linejoin: miter"/>
     <use xlink:href="#m799ab455ac" x="366.588594" y="445.501736" style="fill: #043546; stroke: #ffffff; stroke-width: 0.75; stroke-linejoin: miter"/>
     <use xlink:href="#m799ab455ac" x="431.494139" y="493.014836" style="fill: #043546; stroke: #ffffff; stroke-width: 0.75; stroke-linejoin: miter"/>
     <use xlink:href="#m799ab455ac" x="581.317139" y="594.269668" style="fill: #043546; stroke: #ffffff; stroke-width: 0.75; stroke-linejoin: miter"/>
     <use xlink:href="#m799ab455ac" x="616.395048" y="561.529791" style="fill: #043546; stroke: #ffffff; stroke-width: 0.75; stroke-linejoin: miter"/>
     <use xlink:href="#m799ab455ac" x="653.185003" y="528.358368" style="fill: #043546; stroke: #ffffff; stroke-width: 0.75; stroke-linejoin: miter"/>
     <use xlink:href="#m799ab455ac" x="718.851457" y="570.793623" style="fill: #043546; stroke: #ffffff; stroke-width: 0.75; stroke-linejoin: miter"/>
     <use xlink:href="#m799ab455ac" x="752.940185" y="596.168466" style="fill: #043546; stroke: #ffffff; stroke-width: 0.75; stroke-linejoin: miter"/>
     <use xlink:href="#m799ab455ac" x="822.068776" y="464.86372" style="fill: #043546; stroke: #ffffff; stroke-width: 0.75; stroke-linejoin: miter"/>
    </g>
   </g>
   <g id="line2d_13">
    <path d="M 587.100048 402.937018 
L 663.83773 294.806236 
L 723.454957 295.511093 
" clip-path="url(#p93d96511e1)" style="fill: none; stroke: #043546; stroke-width: 3; stroke-linecap: round"/>
    <defs>
     <path id="m65bfba1201" d="M -7.071068 -7.071068 
L -7.071068 7.071068 
L 7.071068 7.071068 
L 7.071068 -7.071068 
z
" style="stroke: #ffffff; stroke-width: 0.75; stroke-linejoin: miter"/>
    </defs>
    <g clip-path="url(#p93d96511e1)">
     <use xlink:href="#m65bfba1201" x="587.100048" y="402.937018" style="fill: #043546; stroke: #ffffff; stroke-width: 0.75; stroke-linejoin: miter"/>
     <use xlink:href="#m65bfba1201" x="663.83773" y="294.806236" style="fill: #043546; stroke: #ffffff; stroke-width: 0.75; stroke-linejoin: miter"/>
     <use xlink:href="#m65bfba1201" x="723.454957" y="295.511093" style="fill: #043546; stroke: #ffffff; stroke-width: 0.75; stroke-linejoin: miter"/>
    </g>
   </g>
   <g id="line2d_14">
    <path d="M 237.043821 447.084067 
L 306.324594 293.971916 
L 434.119276 473.365155 
" clip-path="url(#p93d96511e1)" style="fill: none; stroke: #35a8cd; stroke-width: 3; stroke-linecap: round"/>
    <defs>
     <path id="m17c1a7fa39" d="M -3.333333 10 
L 3.333333 10 
L 3.333333 3.333333 
L 10 3.333333 
L 10 -3.333333 
L 3.333333 -3.333333 
L 3.333333 -10 
L -3.333333 -10 
L -3.333333 -3.333333 
L -10 -3.333333 
L -10 3.333333 
L -3.333333 3.333333 
z
" style="stroke: #ffffff; stroke-width: 0.75; stroke-linejoin: miter"/>
    </defs>
    <g clip-path="url(#p93d96511e1)">
     <use xlink:href="#m17c1a7fa39" x="237.043821" y="447.084067" style="fill: #35a8cd; stroke: #ffffff; stroke-width: 0.75; stroke-linejoin: miter"/>
     <use xlink:href="#m17c1a7fa39" x="306.324594" y="293.971916" style="fill: #35a8cd; stroke: #ffffff; stroke-width: 0.75; stroke-linejoin: miter"/>
     <use xlink:href="#m17c1a7fa39" x="434.119276" y="473.365155" style="fill: #35a8cd; stroke: #ffffff; stroke-width: 0.75; stroke-linejoin: miter"/>
    </g>
   </g>
   <g id="line2d_15">
    <path d="M 192.568685 279.385696 
L 299.818821 425.247892 
L 390.899639 574.087749 
L 477.909594 567.772808 
" clip-path="url(#p93d96511e1)" style="fill: none; stroke: #35a8cd; stroke-width: 3; stroke-linecap: round"/>
    <defs>
     <path id="m16eff0a740" d="M 0 -10 
L -10 -0 
L -0 10 
L 10 0 
z
" style="stroke: #ffffff; stroke-width: 0.75; stroke-linejoin: miter"/>
    </defs>
    <g clip-path="url(#p93d96511e1)">
     <use xlink:href="#m16eff0a740" x="192.568685" y="279.385696" style="fill: #35a8cd; stroke: #ffffff; stroke-width: 0.75; stroke-linejoin: miter"/>
     <use xlink:href="#m16eff0a740" x="299.818821" y="425.247892" style="fill: #35a8cd; stroke: #ffffff; stroke-width: 0.75; stroke-linejoin: miter"/>
     <use xlink:href="#m16eff0a740" x="390.899639" y="574.087749" style="fill: #35a8cd; stroke: #ffffff; stroke-width: 0.75; stroke-linejoin: miter"/>
     <use xlink:href="#m16eff0a740" x="477.909594" y="567.772808" style="fill: #35a8cd; stroke: #ffffff; stroke-width: 0.75; stroke-linejoin: miter"/>
    </g>
   </g>
   <g id="line2d_16">
    <path d="M 186.024866 377.720407 
L 236.815548 317.160265 
L 366.969048 354.618367 
L 457.022639 439.388182 
L 592.236185 141.794778 
L 691.344594 445.501736 
L 740.042776 451.845447 
L 788.398548 347.023176 
" clip-path="url(#p93d96511e1)" style="fill: none; stroke: #35a8cd; stroke-width: 3; stroke-linecap: round"/>
    <defs>
     <path id="mb34f7f946b" d="M 0 -10 
L -3.535534 -3.535534 
L -10 -0 
L -3.535534 3.535534 
L -0 10 
L 3.535534 3.535534 
L 10 0 
L 3.535534 -3.535534 
z
" style="stroke: #ffffff; stroke-width: 0.75; stroke-linejoin: bevel"/>
    </defs>
    <g clip-path="url(#p93d96511e1)">
     <use xlink:href="#mb34f7f946b" x="186.024866" y="377.720407" style="fill: #35a8cd; stroke: #ffffff; stroke-width: 0.75; stroke-linejoin: bevel"/>
     <use xlink:href="#mb34f7f946b" x="236.815548" y="317.160265" style="fill: #35a8cd; stroke: #ffffff; stroke-width: 0.75; stroke-linejoin: bevel"/>
     <use xlink:href="#mb34f7f946b" x="366.969048" y="354.618367" style="fill: #35a8cd; stroke: #ffffff; stroke-width: 0.75; stroke-linejoin: bevel"/>
     <use xlink:href="#mb34f7f946b" x="457.022639" y="439.388182" style="fill: #35a8cd; stroke: #ffffff; stroke-width: 0.75; stroke-linejoin: bevel"/>
     <use xlink:href="#mb34f7f946b" x="592.236185" y="141.794778" style="fill: #35a8cd; stroke: #ffffff; stroke-width: 0.75; stroke-linejoin: bevel"/>
     <use xlink:href="#mb34f7f946b" x="691.344594" y="445.501736" style="fill: #35a8cd; stroke: #ffffff; stroke-width: 0.75; stroke-linejoin: bevel"/>
     <use xlink:href="#mb34f7f946b" x="740.042776" y="451.845447" style="fill: #35a8cd; stroke: #ffffff; stroke-width: 0.75; stroke-linejoin: bevel"/>
     <use xlink:href="#mb34f7f946b" x="788.398548" y="347.023176" style="fill: #35a8cd; stroke: #ffffff; stroke-width: 0.75; stroke-linejoin: bevel"/>
    </g>
   </g>
   <g id="line2d_17">
    <path d="M 236.625321 420.155662 
L 367.53973 589.882295 
L 573.327594 311.075481 
" clip-path="url(#p93d96511e1)" style="fill: none; stroke: #35a8cd; stroke-width: 3; stroke-linecap: round"/>
    <defs>
     <path id="m6bfb6da913" d="M 0 -10 
L -10 10 
L 10 10 
z
" style="stroke: #ffffff; stroke-width: 0.75; stroke-linejoin: miter"/>
    </defs>
    <g clip-path="url(#p93d96511e1)">
     <use xlink:href="#m6bfb6da913" x="236.625321" y="420.155662" style="fill: #35a8cd; stroke: #ffffff; stroke-width: 0.75; stroke-linejoin: miter"/>
     <use xlink:href="#m6bfb6da913" x="367.53973" y="589.882295" style="fill: #35a8cd; stroke: #ffffff; stroke-width: 0.75; stroke-linejoin: miter"/>
     <use xlink:href="#m6bfb6da913" x="573.327594" y="311.075481" style="fill: #35a8cd; stroke: #ffffff; stroke-width: 0.75; stroke-linejoin: miter"/>
    </g>
   </g>
   <g id="line2d_18">
    <path d="M 322.189548 565.528774 
L 440.016321 503.242452 
L 507.31873 395.47129 
L 557.272412 624.607279 
L 644.206276 484.786712 
L 806.660366 422.111999 
" clip-path="url(#p93d96511e1)" style="fill: none; stroke: #35a8cd; stroke-width: 3; stroke-linecap: round"/>
    <defs>
     <path id="m2c6746455a" d="M -7.071068 -7.071068 
L -5 -0 
L -7.071068 7.071068 
L -0 5 
L 7.071068 7.071068 
L 5 0 
L 7.071068 -7.071068 
L 0 -5 
z
" style="stroke: #ffffff; stroke-width: 0.75; stroke-linejoin: bevel"/>
    </defs>
    <g clip-path="url(#p93d96511e1)">
     <use xlink:href="#m2c6746455a" x="322.189548" y="565.528774" style="fill: #35a8cd; stroke: #ffffff; stroke-width: 0.75; stroke-linejoin: bevel"/>
     <use xlink:href="#m2c6746455a" x="440.016321" y="503.242452" style="fill: #35a8cd; stroke: #ffffff; stroke-width: 0.75; stroke-linejoin: bevel"/>
     <use xlink:href="#m2c6746455a" x="507.31873" y="395.47129" style="fill: #35a8cd; stroke: #ffffff; stroke-width: 0.75; stroke-linejoin: bevel"/>
     <use xlink:href="#m2c6746455a" x="557.272412" y="624.607279" style="fill: #35a8cd; stroke: #ffffff; stroke-width: 0.75; stroke-linejoin: bevel"/>
     <use xlink:href="#m2c6746455a" x="644.206276" y="484.786712" style="fill: #35a8cd; stroke: #ffffff; stroke-width: 0.75; stroke-linejoin: bevel"/>
     <use xlink:href="#m2c6746455a" x="806.660366" y="422.111999" style="fill: #35a8cd; stroke: #ffffff; stroke-width: 0.75; stroke-linejoin: bevel"/>
    </g>
   </g>
   <g id="line2d_19">
    <path d="M 283.231003 295.007623 
L 396.073821 187.984473 
L 464.099094 315.664242 
L 539.695412 214.251177 
" clip-path="url(#p93d96511e1)" style="fill: none; stroke: #ffd086; stroke-width: 3; stroke-linecap: round"/>
    <defs>
     <path id="mcab7ad35b1" d="M -0 10 
L 10 -10 
L -10 -10 
z
" style="stroke: #ffffff; stroke-width: 0.75; stroke-linejoin: miter"/>
    </defs>
    <g clip-path="url(#p93d96511e1)">
     <use xlink:href="#mcab7ad35b1" x="283.231003" y="295.007623" style="fill: #ffd086; stroke: #ffffff; stroke-width: 0.75; stroke-linejoin: miter"/>
     <use xlink:href="#mcab7ad35b1" x="396.073821" y="187.984473" style="fill: #ffd086; stroke: #ffffff; stroke-width: 0.75; stroke-linejoin: miter"/>
     <use xlink:href="#mcab7ad35b1" x="464.099094" y="315.664242" style="fill: #ffd086; stroke: #ffffff; stroke-width: 0.75; stroke-linejoin: miter"/>
     <use xlink:href="#mcab7ad35b1" x="539.695412" y="214.251177" style="fill: #ffd086; stroke: #ffffff; stroke-width: 0.75; stroke-linejoin: miter"/>
    </g>
   </g>
   <g id="line2d_20">
    <path d="M 672.017503 420.32828 
L 755.90773 288.89407 
L 846.798321 450.061728 
" clip-path="url(#p93d96511e1)" style="fill: none; stroke: #ffd086; stroke-width: 3; stroke-linecap: round"/>
    <defs>
     <path id="m9b7466904d" d="M -5 -8.660254 
L -4.330127 -2.5 
L -10 -0 
L -4.330127 2.5 
L -5 8.660254 
L -0 5 
L 5 8.660254 
L 4.330127 2.5 
L 10 0 
L 4.330127 -2.5 
L 5 -8.660254 
L 0 -5 
z
" style="stroke: #ffffff; stroke-width: 0.75; stroke-linejoin: bevel"/>
    </defs>
    <g clip-path="url(#p93d96511e1)">
     <use xlink:href="#m9b7466904d" x="672.017503" y="420.32828" style="fill: #ffd086; stroke: #ffffff; stroke-width: 0.75; stroke-linejoin: bevel"/>
     <use xlink:href="#m9b7466904d" x="755.90773" y="288.89407" style="fill: #ffd086; stroke: #ffffff; stroke-width: 0.75; stroke-linejoin: bevel"/>
     <use xlink:href="#m9b7466904d" x="846.798321" y="450.061728" style="fill: #ffd086; stroke: #ffffff; stroke-width: 0.75; stroke-linejoin: bevel"/>
    </g>
   </g>
   <g id="line2d_21">
    <path d="M 220.684276 497.747446 
L 514.471276 544.311147 
L 582.838957 561.328403 
" clip-path="url(#p93d96511e1)" style="fill: none; stroke: #81132c; stroke-width: 3; stroke-linecap: round"/>
    <defs>
     <path id="m565a8934ce" d="M -5 -8.660254 
L -10 -0 
L -5 8.660254 
L 5 8.660254 
L 10 0 
L 5 -8.660254 
z
" style="stroke: #ffffff; stroke-width: 0.75; stroke-linejoin: miter"/>
    </defs>
    <g clip-path="url(#p93d96511e1)">
     <use xlink:href="#m565a8934ce" x="220.684276" y="497.747446" style="fill: #81132c; stroke: #ffffff; stroke-width: 0.75; stroke-linejoin: miter"/>
     <use xlink:href="#m565a8934ce" x="514.471276" y="544.311147" style="fill: #81132c; stroke: #ffffff; stroke-width: 0.75; stroke-linejoin: miter"/>
     <use xlink:href="#m565a8934ce" x="582.838957" y="561.328403" style="fill: #81132c; stroke: #ffffff; stroke-width: 0.75; stroke-linejoin: miter"/>
    </g>
   </g>
   <g id="line2d_22">
    <path d="M 395.16073 513.18237 
L 457.707457 402.239354 
L 658.81573 486.613586 
" clip-path="url(#p93d96511e1)" style="fill: none; stroke: #81132c; stroke-width: 3; stroke-linecap: round"/>
    <defs>
     <path id="m21806d76b9" d="M 0 -10 
L -2.938926 -4.045085 
L -9.510565 -3.09017 
L -4.755283 1.545085 
L -5.877853 8.09017 
L -0 5 
L 5.877853 8.09017 
L 4.755283 1.545085 
L 9.510565 -3.09017 
L 2.938926 -4.045085 
z
" style="stroke: #ffffff; stroke-width: 0.75; stroke-linejoin: bevel"/>
    </defs>
    <g clip-path="url(#p93d96511e1)">
     <use xlink:href="#m21806d76b9" x="395.16073" y="513.18237" style="fill: #81132c; stroke: #ffffff; stroke-width: 0.75; stroke-linejoin: bevel"/>
     <use xlink:href="#m21806d76b9" x="457.707457" y="402.239354" style="fill: #81132c; stroke: #ffffff; stroke-width: 0.75; stroke-linejoin: bevel"/>
     <use xlink:href="#m21806d76b9" x="658.81573" y="486.613586" style="fill: #81132c; stroke: #ffffff; stroke-width: 0.75; stroke-linejoin: bevel"/>
    </g>
   </g>
   <g id="line2d_23">
    <path d="M 238.603685 416.861535 
L 261.887503 449.572643 
L 319.83073 557.760965 
L 341.897094 417.695856 
L 371.648639 570.117535 
" clip-path="url(#p93d96511e1)" style="fill: none; stroke: #81132c; stroke-width: 3; stroke-linecap: round"/>
    <defs>
     <path id="m984666d63a" d="M 0 -10 
L -9.510565 -3.09017 
L -5.877853 8.09017 
L 5.877853 8.09017 
L 9.510565 -3.09017 
z
" style="stroke: #ffffff; stroke-width: 0.75; stroke-linejoin: miter"/>
    </defs>
    <g clip-path="url(#p93d96511e1)">
     <use xlink:href="#m984666d63a" x="238.603685" y="416.861535" style="fill: #81132c; stroke: #ffffff; stroke-width: 0.75; stroke-linejoin: miter"/>
     <use xlink:href="#m984666d63a" x="261.887503" y="449.572643" style="fill: #81132c; stroke: #ffffff; stroke-width: 0.75; stroke-linejoin: miter"/>
     <use xlink:href="#m984666d63a" x="319.83073" y="557.760965" style="fill: #81132c; stroke: #ffffff; stroke-width: 0.75; stroke-linejoin: miter"/>
     <use xlink:href="#m984666d63a" x="341.897094" y="417.695856" style="fill: #81132c; stroke: #ffffff; stroke-width: 0.75; stroke-linejoin: miter"/>
     <use xlink:href="#m984666d63a" x="371.648639" y="570.117535" style="fill: #81132c; stroke: #ffffff; stroke-width: 0.75; stroke-linejoin: miter"/>
    </g>
   </g>
   <g id="line2d_24">
    <path d="M 308.797548 559.199448 
L 492.328821 402.31847 
L 614.378639 424.384802 
L 644.358457 365.464531 
" clip-path="url(#p93d96511e1)" style="fill: none; stroke: #81132c; stroke-width: 3; stroke-linecap: round"/>
    <defs>
     <path id="ma0aa1e9443" d="M -4.338837 -9.009689 
L -3.909157 -3.117449 
L -9.749279 -2.225209 
L -4.87464 1.112605 
L -7.818315 6.234898 
L -2.169419 4.504844 
L -0 10 
L 2.169419 4.504844 
L 7.818315 6.234898 
L 4.87464 1.112605 
L 9.749279 -2.225209 
L 3.909157 -3.117449 
L 4.338837 -9.009689 
L 0 -5 
z
" style="stroke: #ffffff; stroke-width: 0.75; stroke-linejoin: bevel"/>
    </defs>
    <g clip-path="url(#p93d96511e1)">
     <use xlink:href="#ma0aa1e9443" x="308.797548" y="559.199448" style="fill: #81132c; stroke: #ffffff; stroke-width: 0.75; stroke-linejoin: bevel"/>
     <use xlink:href="#ma0aa1e9443" x="492.328821" y="402.31847" style="fill: #81132c; stroke: #ffffff; stroke-width: 0.75; stroke-linejoin: bevel"/>
     <use xlink:href="#ma0aa1e9443" x="614.378639" y="424.384802" style="fill: #81132c; stroke: #ffffff; stroke-width: 0.75; stroke-linejoin: bevel"/>
     <use xlink:href="#ma0aa1e9443" x="644.358457" y="365.464531" style="fill: #81132c; stroke: #ffffff; stroke-width: 0.75; stroke-linejoin: bevel"/>
    </g>
   </g>
   <g id="line2d_25">
    <path d="M 312.221639 305.249624 
L 385.573276 443.214548 
L 447.168866 482.715296 
" clip-path="url(#p93d96511e1)" style="fill: none; stroke: #81132c; stroke-width: 3; stroke-linecap: round"/>
    <defs>
     <path id="m5a41b23a19" d="M -4.338837 -9.009689 
L -9.749279 -2.225209 
L -7.818315 6.234898 
L -0 10 
L 7.818315 6.234898 
L 9.749279 -2.225209 
L 4.338837 -9.009689 
z
" style="stroke: #ffffff; stroke-width: 0.75; stroke-linejoin: miter"/>
    </defs>
    <g clip-path="url(#p93d96511e1)">
     <use xlink:href="#m5a41b23a19" x="312.221639" y="305.249624" style="fill: #81132c; stroke: #ffffff; stroke-width: 0.75; stroke-linejoin: miter"/>
     <use xlink:href="#m5a41b23a19" x="385.573276" y="443.214548" style="fill: #81132c; stroke: #ffffff; stroke-width: 0.75; stroke-linejoin: miter"/>
     <use xlink:href="#m5a41b23a19" x="447.168866" y="482.715296" style="fill: #81132c; stroke: #ffffff; stroke-width: 0.75; stroke-linejoin: miter"/>
    </g>
   </g>
   <g id="line2d_26"/>
   <g id="line2d_27"/>
   <g id="line2d_28"/>
   <g id="line2d_29"/>
   <g id="line2d_30"/>
   <g id="line2d_31"/>
   <g id="line2d_32"/>
   <g id="line2d_33"/>
   <g id="line2d_34"/>
   <g id="line2d_35"/>
   <g id="line2d_36"/>
   <g id="line2d_37"/>
   <g id="line2d_38"/>
   <g id="line2d_39"/>
   <g id="line2d_40"/>
   <g id="line2d_41"/>
   <g id="line2d_42"/>
   <g id="line2d_43"/>
   <g id="line2d_44"/>
   <g id="patch_3">
    <path d="M 102.933594 672.48 
L 102.933594 7.2 
" style="fill: none; stroke: #ffffff; stroke-width: 1.25; stroke-linejoin: miter; stroke-linecap: square"/>
   </g>
   <g id="patch_4">
    <path d="M 939.933594 672.48 
L 939.933594 7.2 
" style="fill: none; stroke: #ffffff; stroke-width: 1.25; stroke-linejoin: miter; stroke-linecap: square"/>
   </g>
   <g id="patch_5">
    <path d="M 102.933594 672.48 
L 939.933594 672.48 
" style="fill: none; stroke: #ffffff; stroke-width: 1.25; stroke-linejoin: miter; stroke-linecap: square"/>
   </g>
   <g id="patch_6">
    <path d="M 102.933594 7.2 
L 939.933594 7.2 
" style="fill: none; stroke: #ffffff; stroke-width: 1.25; stroke-linejoin: miter; stroke-linecap: square"/>
   </g>
   <g id="legend_1">
    <g id="patch_7">
     <path d="M 966.883594 1183.344922 
L 1295.547266 1183.344922 
Q 1303.247266 1183.344922 1303.247266 1175.644922 
L 1303.247266 34.15 
Q 1303.247266 26.45 1295.547266 26.45 
L 966.883594 26.45 
Q 959.183594 26.45 959.183594 34.15 
L 959.183594 1175.644922 
Q 959.183594 1183.344922 966.883594 1183.344922 
z
" style="fill: #f5f5f9; opacity: 0.8; stroke: #cccccc; stroke-linejoin: miter"/>
    </g>
    <g id="text_13">
     <text style="fill: #262626; font: 38.5px 'arial'; text-anchor: start" x="1082.383594" y="69.407578" transform="rotate(-0 1082.383594 69.407578)">Strain </text>
    </g>
    <g id="line2d_45">
     <path d="M 974.583594 110.392031 
L 1013.083594 110.392031 
L 1051.583594 110.392031 
" style="fill: none; stroke: #043546; stroke-width: 1.5; stroke-linecap: round"/>
    </g>
    <g id="text_14">
     <text style="fill: #262626; font: 38.5px 'arial'; text-anchor: start" x="1082.383594" y="123.867031" transform="rotate(-0 1082.383594 123.867031)">NF54</text>
    </g>
    <g id="line2d_46">
     <path d="M 974.583594 164.851484 
L 1013.083594 164.851484 
L 1051.583594 164.851484 
" style="fill: none; stroke: #35a8cd; stroke-width: 1.5; stroke-linecap: round"/>
    </g>
    <g id="text_15">
     <text style="fill: #262626; font: 38.5px 'arial'; text-anchor: start" x="1082.383594" y="178.326484" transform="rotate(-0 1082.383594 178.326484)">cKOAMA1</text>
    </g>
    <g id="line2d_47">
     <path d="M 974.583594 219.310937 
L 1013.083594 219.310937 
L 1051.583594 219.310937 
" style="fill: none; stroke: #ffd086; stroke-width: 1.5; stroke-linecap: round"/>
    </g>
    <g id="text_16">
     <text style="fill: #262626; font: 38.5px 'arial'; text-anchor: start" x="1082.383594" y="232.785937" transform="rotate(-0 1082.383594 232.785937)">cKOMSP1</text>
    </g>
    <g id="line2d_48">
     <path d="M 974.583594 273.770391 
L 1013.083594 273.770391 
L 1051.583594 273.770391 
" style="fill: none; stroke: #81132c; stroke-width: 1.5; stroke-linecap: round"/>
    </g>
    <g id="text_17">
     <text style="fill: #262626; font: 38.5px 'arial'; text-anchor: start" x="1082.383594" y="287.245391" transform="rotate(-0 1082.383594 287.245391)">cKOGAP45</text>
    </g>
    <g id="text_18">
     <text style="fill: #262626; font: 38.5px 'arial'; text-anchor: start" x="1082.383594" y="341.704844" transform="rotate(-0 1082.383594 341.704844)">Name </text>
    </g>
    <g id="line2d_49">
     <path d="M 974.583594 382.689297 
L 1013.083594 382.689297 
L 1051.583594 382.689297 
" style="fill: none; stroke: #333333; stroke-width: 1.5; stroke-linecap: round"/>
     <defs>
      <path id="md8ac79b363" d="M 0 3 
C 0.795609 3 1.55874 2.683901 2.12132 2.12132 
C 2.683901 1.55874 3 0.795609 3 0 
C 3 -0.795609 2.683901 -1.55874 2.12132 -2.12132 
C 1.55874 -2.683901 0.795609 -3 0 -3 
C -0.795609 -3 -1.55874 -2.683901 -2.12132 -2.12132 
C -2.683901 -1.55874 -3 -0.795609 -3 0 
C -3 0.795609 -2.683901 1.55874 -2.12132 2.12132 
C -1.55874 2.683901 -0.795609 3 0 3 
z
" style="stroke: #333333"/>
     </defs>
     <g>
      <use xlink:href="#md8ac79b363" x="1013.083594" y="382.689297" style="fill: #333333; stroke: #333333"/>
     </g>
    </g>
    <g id="text_19">
     <text style="fill: #262626; font: 38.5px 'arial'; text-anchor: start" x="1082.383594" y="396.164297" transform="rotate(-0 1082.383594 396.164297)">EEJR0125e</text>
    </g>
    <g id="line2d_50">
     <path d="M 974.583594 437.14875 
L 1013.083594 437.14875 
L 1051.583594 437.14875 
" style="fill: none; stroke: #333333; stroke-width: 1.5; stroke-linecap: round"/>
     <defs>
      <path id="ma78d22bb66" d="M -1.5 3 
L 0 1.5 
L 1.5 3 
L 3 1.5 
L 1.5 0 
L 3 -1.5 
L 1.5 -3 
L 0 -1.5 
L -1.5 -3 
L -3 -1.5 
L -1.5 0 
L -3 1.5 
z
" style="stroke: #333333; stroke-linejoin: miter"/>
     </defs>
     <g>
      <use xlink:href="#ma78d22bb66" x="1013.083594" y="437.14875" style="fill: #333333; stroke: #333333; stroke-linejoin: miter"/>
     </g>
    </g>
    <g id="text_20">
     <text style="fill: #262626; font: 38.5px 'arial'; text-anchor: start" x="1082.383594" y="450.62375" transform="rotate(-0 1082.383594 450.62375)">EEJR0132c</text>
    </g>
    <g id="line2d_51">
     <path d="M 974.583594 491.608203 
L 1013.083594 491.608203 
L 1051.583594 491.608203 
" style="fill: none; stroke: #333333; stroke-width: 1.5; stroke-linecap: round"/>
     <defs>
      <path id="ma4c0cc15a9" d="M -2.12132 -2.12132 
L -2.12132 2.12132 
L 2.12132 2.12132 
L 2.12132 -2.12132 
z
" style="stroke: #333333; stroke-linejoin: miter"/>
     </defs>
     <g>
      <use xlink:href="#ma4c0cc15a9" x="1013.083594" y="491.608203" style="fill: #333333; stroke: #333333; stroke-linejoin: miter"/>
     </g>
    </g>
    <g id="text_21">
     <text style="fill: #262626; font: 38.5px 'arial'; text-anchor: start" x="1082.383594" y="505.083203" transform="rotate(-0 1082.383594 505.083203)">EEJR0132f</text>
    </g>
    <g id="line2d_52">
     <path d="M 974.583594 546.067656 
L 1013.083594 546.067656 
L 1051.583594 546.067656 
" style="fill: none; stroke: #333333; stroke-width: 1.5; stroke-linecap: round"/>
     <defs>
      <path id="m9ce6d4f9b3" d="M -1 3 
L 1 3 
L 1 1 
L 3 1 
L 3 -1 
L 1 -1 
L 1 -3 
L -1 -3 
L -1 -1 
L -3 -1 
L -3 1 
L -1 1 
z
" style="stroke: #333333; stroke-linejoin: miter"/>
     </defs>
     <g>
      <use xlink:href="#m9ce6d4f9b3" x="1013.083594" y="546.067656" style="fill: #333333; stroke: #333333; stroke-linejoin: miter"/>
     </g>
    </g>
    <g id="text_22">
     <text style="fill: #262626; font: 38.5px 'arial'; text-anchor: start" x="1082.383594" y="559.542656" transform="rotate(-0 1082.383594 559.542656)">EEJR0120f</text>
    </g>
    <g id="line2d_53">
     <path d="M 974.583594 600.527109 
L 1013.083594 600.527109 
L 1051.583594 600.527109 
" style="fill: none; stroke: #333333; stroke-width: 1.5; stroke-linecap: round"/>
     <defs>
      <path id="mb4dde231ad" d="M 0 -3 
L -3 -0 
L -0 3 
L 3 0 
z
" style="stroke: #333333; stroke-linejoin: miter"/>
     </defs>
     <g>
      <use xlink:href="#mb4dde231ad" x="1013.083594" y="600.527109" style="fill: #333333; stroke: #333333; stroke-linejoin: miter"/>
     </g>
    </g>
    <g id="text_23">
     <text style="fill: #262626; font: 38.5px 'arial'; text-anchor: start" x="1082.383594" y="614.002109" transform="rotate(-0 1082.383594 614.002109)">EEJR0120h</text>
    </g>
    <g id="line2d_54">
     <path d="M 974.583594 654.986562 
L 1013.083594 654.986562 
L 1051.583594 654.986562 
" style="fill: none; stroke: #333333; stroke-width: 1.5; stroke-linecap: round"/>
     <defs>
      <path id="mb05ef7ce50" d="M 0 -3 
L -1.06066 -1.06066 
L -3 -0 
L -1.06066 1.06066 
L -0 3 
L 1.06066 1.06066 
L 3 0 
L 1.06066 -1.06066 
z
" style="stroke: #333333; stroke-linejoin: bevel"/>
     </defs>
     <g>
      <use xlink:href="#mb05ef7ce50" x="1013.083594" y="654.986562" style="fill: #333333; stroke: #333333; stroke-linejoin: bevel"/>
     </g>
    </g>
    <g id="text_24">
     <text style="fill: #262626; font: 38.5px 'arial'; text-anchor: start" x="1082.383594" y="668.461562" transform="rotate(-0 1082.383594 668.461562)">EEJR0120i</text>
    </g>
    <g id="line2d_55">
     <path d="M 974.583594 709.446016 
L 1013.083594 709.446016 
L 1051.583594 709.446016 
" style="fill: none; stroke: #333333; stroke-width: 1.5; stroke-linecap: round"/>
     <defs>
      <path id="m0656371ee1" d="M 0 -3 
L -3 3 
L 3 3 
z
" style="stroke: #333333; stroke-linejoin: miter"/>
     </defs>
     <g>
      <use xlink:href="#m0656371ee1" x="1013.083594" y="709.446016" style="fill: #333333; stroke: #333333; stroke-linejoin: miter"/>
     </g>
    </g>
    <g id="text_25">
     <text style="fill: #262626; font: 38.5px 'arial'; text-anchor: start" x="1082.383594" y="722.921016" transform="rotate(-0 1082.383594 722.921016)">EEJR0120e</text>
    </g>
    <g id="line2d_56">
     <path d="M 974.583594 764.019766 
L 1013.083594 764.019766 
L 1051.583594 764.019766 
" style="fill: none; stroke: #333333; stroke-width: 1.5; stroke-linecap: round"/>
     <defs>
      <path id="m3e4ce6390e" d="M -2.12132 -2.12132 
L -1.5 -0 
L -2.12132 2.12132 
L -0 1.5 
L 2.12132 2.12132 
L 1.5 0 
L 2.12132 -2.12132 
L 0 -1.5 
z
" style="stroke: #333333; stroke-linejoin: bevel"/>
     </defs>
     <g>
      <use xlink:href="#m3e4ce6390e" x="1013.083594" y="764.019766" style="fill: #333333; stroke: #333333; stroke-linejoin: bevel"/>
     </g>
    </g>
    <g id="text_26">
     <text style="fill: #262626; font: 38.5px 'arial'; text-anchor: start" x="1082.383594" y="777.494766" transform="rotate(-0 1082.383594 777.494766)">EEJR0121j</text>
    </g>
    <g id="line2d_57">
     <path d="M 974.583594 819.044687 
L 1013.083594 819.044687 
L 1051.583594 819.044687 
" style="fill: none; stroke: #333333; stroke-width: 1.5; stroke-linecap: round"/>
     <defs>
      <path id="made4ca54b7" d="M -0 3 
L 3 -3 
L -3 -3 
z
" style="stroke: #333333; stroke-linejoin: miter"/>
     </defs>
     <g>
      <use xlink:href="#made4ca54b7" x="1013.083594" y="819.044687" style="fill: #333333; stroke: #333333; stroke-linejoin: miter"/>
     </g>
    </g>
    <g id="text_27">
     <text style="fill: #262626; font: 38.5px 'arial'; text-anchor: start" x="1082.383594" y="832.519687" transform="rotate(-0 1082.383594 832.519687)">EEJR0144g</text>
    </g>
    <g id="line2d_58">
     <path d="M 974.583594 873.955312 
L 1013.083594 873.955312 
L 1051.583594 873.955312 
" style="fill: none; stroke: #333333; stroke-width: 1.5; stroke-linecap: round"/>
     <defs>
      <path id="m18d8d82ed1" d="M -1.5 -2.598076 
L -1.299038 -0.75 
L -3 -0 
L -1.299038 0.75 
L -1.5 2.598076 
L -0 1.5 
L 1.5 2.598076 
L 1.299038 0.75 
L 3 0 
L 1.299038 -0.75 
L 1.5 -2.598076 
L 0 -1.5 
z
" style="stroke: #333333; stroke-linejoin: bevel"/>
     </defs>
     <g>
      <use xlink:href="#m18d8d82ed1" x="1013.083594" y="873.955312" style="fill: #333333; stroke: #333333; stroke-linejoin: bevel"/>
     </g>
    </g>
    <g id="text_28">
     <text style="fill: #262626; font: 38.5px 'arial'; text-anchor: start" x="1082.383594" y="887.430312" transform="rotate(-0 1082.383594 887.430312)">EEJR0151d</text>
    </g>
    <g id="line2d_59">
     <path d="M 974.583594 928.529062 
L 1013.083594 928.529062 
L 1051.583594 928.529062 
" style="fill: none; stroke: #333333; stroke-width: 1.5; stroke-linecap: round"/>
     <defs>
      <path id="m3c30a5a06d" d="M -1.5 -2.598076 
L -3 -0 
L -1.5 2.598076 
L 1.5 2.598076 
L 3 0 
L 1.5 -2.598076 
z
" style="stroke: #333333; stroke-linejoin: miter"/>
     </defs>
     <g>
      <use xlink:href="#m3c30a5a06d" x="1013.083594" y="928.529062" style="fill: #333333; stroke: #333333; stroke-linejoin: miter"/>
     </g>
    </g>
    <g id="text_29">
     <text style="fill: #262626; font: 38.5px 'arial'; text-anchor: start" x="1082.383594" y="942.004062" transform="rotate(-0 1082.383594 942.004062)">EEJR0145g</text>
    </g>
    <g id="line2d_60">
     <path d="M 974.583594 983.439687 
L 1013.083594 983.439687 
L 1051.583594 983.439687 
" style="fill: none; stroke: #333333; stroke-width: 1.5; stroke-linecap: round"/>
     <defs>
      <path id="m881d138d77" d="M 0 -3 
L -0.881678 -1.213525 
L -2.85317 -0.927051 
L -1.426585 0.463525 
L -1.763356 2.427051 
L -0 1.5 
L 1.763356 2.427051 
L 1.426585 0.463525 
L 2.85317 -0.927051 
L 0.881678 -1.213525 
z
" style="stroke: #333333; stroke-linejoin: bevel"/>
     </defs>
     <g>
      <use xlink:href="#m881d138d77" x="1013.083594" y="983.439687" style="fill: #333333; stroke: #333333; stroke-linejoin: bevel"/>
     </g>
    </g>
    <g id="text_30">
     <text style="fill: #262626; font: 38.5px 'arial'; text-anchor: start" x="1082.383594" y="996.914687" transform="rotate(-0 1082.383594 996.914687)">EEJR0148b</text>
    </g>
    <g id="line2d_61">
     <path d="M 974.583594 1037.899141 
L 1013.083594 1037.899141 
L 1051.583594 1037.899141 
" style="fill: none; stroke: #333333; stroke-width: 1.5; stroke-linecap: round"/>
     <defs>
      <path id="m7f29f8c904" d="M 0 -3 
L -2.85317 -0.927051 
L -1.763356 2.427051 
L 1.763356 2.427051 
L 2.85317 -0.927051 
z
" style="stroke: #333333; stroke-linejoin: miter"/>
     </defs>
     <g>
      <use xlink:href="#m7f29f8c904" x="1013.083594" y="1037.899141" style="fill: #333333; stroke: #333333; stroke-linejoin: miter"/>
     </g>
    </g>
    <g id="text_31">
     <text style="fill: #262626; font: 38.5px 'arial'; text-anchor: start" x="1082.383594" y="1051.374141" transform="rotate(-0 1082.383594 1051.374141)">EEJR0148c</text>
    </g>
    <g id="line2d_62">
     <path d="M 974.583594 1092.358594 
L 1013.083594 1092.358594 
L 1051.583594 1092.358594 
" style="fill: none; stroke: #333333; stroke-width: 1.5; stroke-linecap: round"/>
     <defs>
      <path id="m3340ca1b90" d="M -1.301651 -2.702907 
L -1.172747 -0.935235 
L -2.924784 -0.667563 
L -1.462392 0.333781 
L -2.345494 1.870469 
L -0.650826 1.351453 
L -0 3 
L 0.650826 1.351453 
L 2.345494 1.870469 
L 1.462392 0.333781 
L 2.924784 -0.667563 
L 1.172747 -0.935235 
L 1.301651 -2.702907 
L 0 -1.5 
z
" style="stroke: #333333; stroke-linejoin: bevel"/>
     </defs>
     <g>
      <use xlink:href="#m3340ca1b90" x="1013.083594" y="1092.358594" style="fill: #333333; stroke: #333333; stroke-linejoin: bevel"/>
     </g>
    </g>
    <g id="text_32">
     <text style="fill: #262626; font: 38.5px 'arial'; text-anchor: start" x="1082.383594" y="1105.833594" transform="rotate(-0 1082.383594 1105.833594)">EEJR0150a</text>
    </g>
    <g id="line2d_63">
     <path d="M 974.583594 1146.818047 
L 1013.083594 1146.818047 
L 1051.583594 1146.818047 
" style="fill: none; stroke: #333333; stroke-width: 1.5; stroke-linecap: round"/>
     <defs>
      <path id="m03eab2b976" d="M -1.301651 -2.702907 
L -2.924784 -0.667563 
L -2.345494 1.870469 
L -0 3 
L 2.345494 1.870469 
L 2.924784 -0.667563 
L 1.301651 -2.702907 
z
" style="stroke: #333333; stroke-linejoin: miter"/>
     </defs>
     <g>
      <use xlink:href="#m03eab2b976" x="1013.083594" y="1146.818047" style="fill: #333333; stroke: #333333; stroke-linejoin: miter"/>
     </g>
    </g>
    <g id="text_33">
     <text style="fill: #262626; font: 38.5px 'arial'; text-anchor: start" x="1082.383594" y="1160.293047" transform="rotate(-0 1082.383594 1160.293047)">EEJR0150h</text>
    </g>
   </g>
  </g>
 </g>
 <defs>
  <clipPath id="p93d96511e1">
   <rect x="102.933594" y="7.2" width="837" height="665.28"/>
  </clipPath>
 </defs>
</svg>
