<?xml version="1.0" encoding="utf-8" standalone="no"?>
<!DOCTYPE svg PUBLIC "-//W3C//DTD SVG 1.1//EN"
  "http://www.w3.org/Graphics/SVG/1.1/DTD/svg11.dtd">
<svg xmlns:xlink="http://www.w3.org/1999/xlink" width="864pt" height="648pt" viewBox="0 0 864 648" xmlns="http://www.w3.org/2000/svg" version="1.1">
 <metadata>
  <rdf:RDF xmlns:dc="http://purl.org/dc/elements/1.1/" xmlns:cc="http://creativecommons.org/ns#" xmlns:rdf="http://www.w3.org/1999/02/22-rdf-syntax-ns#">
   <cc:Work>
    <dc:type rdf:resource="http://purl.org/dc/dcmitype/StillImage"/>
    <dc:date>2022-11-10T21:11:15.963280</dc:date>
    <dc:format>image/svg+xml</dc:format>
    <dc:creator>
     <cc:Agent>
      <dc:title>Matplotlib v3.6.2, https://matplotlib.org/</dc:title>
     </cc:Agent>
    </dc:creator>
   </cc:Work>
  </rdf:RDF>
 </metadata>
 <defs>
  <style type="text/css">*{stroke-linejoin: round; stroke-linecap: butt}</style>
 </defs>
 <g id="figure_1">
  <g id="patch_1">
   <path d="M 0 648 
L 864 648 
L 864 0 
L 0 0 
z
" style="fill: #ffffff"/>
  </g>
  <g id="axes_1">
   <g id="patch_2">
    <path d="M 108 576.72 
L 777.6 576.72 
L 777.6 77.76 
L 108 77.76 
z
" style="fill: #eaeaf2"/>
   </g>
   <g id="matplotlib.axis_1">
    <g id="xtick_1">
     <g id="text_1">
      <!-- NF54 -->
      <g style="fill: #262626" transform="translate(125.16375 586.22) rotate(-270) scale(0.22 -0.22)">
       <defs>
        <path id="Candara-4e" d="M 3725 0 
L 3288 0 
Q 3288 53 2263 1497 
Q 1191 3013 1041 3409 
L 1009 3409 
Q 1066 2656 1066 2119 
Q 1066 1069 1113 0 
L 588 0 
Q 641 1016 641 2138 
Q 641 3241 588 4069 
L 1188 4069 
Q 1188 3981 2131 2644 
Q 3119 1238 3256 813 
L 3288 813 
Q 3234 1575 3234 2106 
Q 3234 3263 3191 4069 
L 3725 4069 
Q 3672 3241 3672 2138 
Q 3672 1016 3725 0 
z
" transform="scale(0.015625)"/>
        <path id="Candara-46" d="M 2994 4069 
L 2969 3603 
Q 2138 3641 1084 3641 
Q 1122 3122 1122 2209 
Q 1856 2209 2550 2234 
L 2550 1781 
Q 1881 1806 1122 1806 
Q 1122 584 1156 0 
L 588 0 
Q 631 969 631 2138 
Q 631 3238 588 4069 
L 2994 4069 
z
" transform="scale(0.015625)"/>
        <path id="Candara-35" d="M 2769 544 
Q 2769 -100 2141 -600 
Q 1513 -1100 463 -1141 
L 375 -772 
Q 1238 -719 1727 -400 
Q 2216 -81 2216 403 
Q 2216 928 1819 1139 
Q 1422 1350 397 1350 
Q 572 2775 572 3297 
L 2481 3297 
L 2463 2800 
Q 1825 2888 956 2888 
Q 872 2291 872 1769 
Q 1834 1769 2301 1476 
Q 2769 1184 2769 544 
z
" transform="scale(0.015625)"/>
        <path id="Candara-34" d="M 3131 972 
L 3066 481 
L 2525 481 
Q 2525 -100 2563 -1031 
L 2028 -1031 
Q 2053 -225 2053 481 
L 284 481 
L 219 875 
Q 219 956 1066 2103 
Q 1913 3250 1909 3297 
L 2563 3297 
Q 2525 2591 2525 938 
Q 2809 938 3131 972 
z
M 2084 2853 
L 2059 2853 
Q 2059 2769 1387 1881 
Q 716 994 716 944 
L 716 919 
Q 1266 919 2050 941 
Q 2056 1909 2084 2853 
z
" transform="scale(0.015625)"/>
       </defs>
       <use xlink:href="#Candara-4e"/>
       <use xlink:href="#Candara-46" x="67.382812"/>
       <use xlink:href="#Candara-35" x="116.308594"/>
       <use xlink:href="#Candara-34" x="165.429688"/>
      </g>
     </g>
    </g>
    <g id="xtick_2">
     <g id="text_2">
      <!-- KOP230P C3 -->
      <g style="fill: #262626" transform="translate(169.80375 586.22) rotate(-270) scale(0.22 -0.22)">
       <defs>
        <path id="Candara-4b" d="M 3719 0 
L 3034 0 
Q 3034 34 2678 544 
Q 2266 1134 1925 1519 
Q 1463 2041 1241 2041 
L 1144 2041 
Q 1144 1309 1175 0 
L 588 0 
Q 634 969 634 2138 
Q 634 3238 588 4069 
L 1175 4069 
Q 1144 3238 1144 2381 
L 1216 2381 
Q 1388 2381 2073 3178 
Q 2759 3975 2759 4069 
L 3409 4069 
Q 3409 3975 2742 3295 
Q 2075 2616 1750 2381 
L 1750 2350 
Q 2109 2213 2947 1109 
Q 3719 94 3719 0 
z
" transform="scale(0.015625)"/>
        <path id="Candara-4f" d="M 4131 2097 
Q 4131 1088 3540 483 
Q 2950 -122 2175 -122 
Q 1431 -122 870 433 
Q 309 988 309 1931 
Q 309 2953 900 3551 
Q 1491 4150 2266 4150 
Q 3009 4150 3570 3595 
Q 4131 3041 4131 2097 
z
M 3575 2025 
Q 3575 2831 3151 3273 
Q 2728 3716 2175 3716 
Q 1663 3716 1263 3250 
Q 863 2784 863 2006 
Q 863 1197 1289 755 
Q 1716 313 2266 313 
Q 2778 313 3176 784 
Q 3575 1256 3575 2025 
z
" transform="scale(0.015625)"/>
        <path id="Candara-50" d="M 3331 3059 
Q 3331 2347 2790 1994 
Q 2250 1641 1338 1641 
Q 1222 1641 1138 1647 
Q 1138 966 1188 0 
L 588 0 
Q 634 888 634 2138 
Q 634 3213 588 4069 
L 1034 4069 
Q 1106 4069 1445 4078 
Q 1784 4088 2022 4088 
Q 2622 4088 2976 3814 
Q 3331 3541 3331 3059 
z
M 2809 2878 
Q 2809 3681 1713 3681 
Q 1444 3681 1109 3634 
Q 1131 3125 1131 2047 
Q 1241 2041 1400 2041 
Q 2809 2041 2809 2878 
z
" transform="scale(0.015625)"/>
        <path id="Candara-32" d="M 2644 441 
L 2581 0 
L 313 0 
L 375 422 
Q 1184 978 1512 1351 
Q 1841 1725 1841 2213 
Q 1841 2872 959 2872 
Q 581 2872 359 2822 
L 422 3263 
Q 653 3325 1028 3325 
Q 1722 3325 2056 3044 
Q 2391 2763 2391 2359 
Q 2391 1759 1955 1296 
Q 1519 834 888 428 
L 888 403 
Q 1775 403 2644 441 
z
" transform="scale(0.015625)"/>
        <path id="Candara-33" d="M 2734 472 
Q 2734 -163 2101 -670 
Q 1469 -1178 278 -1238 
L 188 -853 
Q 1134 -791 1665 -475 
Q 2197 -159 2197 363 
Q 2197 847 1800 1045 
Q 1403 1244 644 1244 
L 706 1616 
Q 1309 1616 1696 1800 
Q 2084 1984 2084 2306 
Q 2084 2609 1840 2737 
Q 1597 2866 1084 2866 
Q 700 2866 413 2800 
L 450 3241 
Q 738 3325 1353 3325 
Q 1922 3325 2230 3083 
Q 2538 2841 2538 2506 
Q 2538 1819 1816 1578 
L 1816 1547 
Q 2213 1472 2473 1184 
Q 2734 897 2734 472 
z
" transform="scale(0.015625)"/>
        <path id="Candara-30" d="M 3141 1684 
Q 3141 934 2769 428 
Q 2397 -78 1719 -78 
Q 1069 -78 722 384 
Q 375 847 375 1563 
Q 375 2313 747 2819 
Q 1119 3325 1797 3325 
Q 2447 3325 2794 2862 
Q 3141 2400 3141 1684 
z
M 2613 1559 
Q 2613 2175 2378 2547 
Q 2144 2919 1731 2913 
Q 1334 2913 1118 2559 
Q 903 2206 903 1688 
Q 903 1072 1137 700 
Q 1372 328 1784 334 
Q 2147 334 2380 659 
Q 2613 984 2613 1559 
z
" transform="scale(0.015625)"/>
        <path id="Candara-20" transform="scale(0.015625)"/>
        <path id="Candara-43" d="M 3344 497 
L 3303 31 
Q 2919 -84 2466 -84 
Q 1391 -84 850 505 
Q 309 1094 309 1944 
Q 309 2834 912 3479 
Q 1516 4125 2534 4125 
Q 2816 4125 3128 4041 
L 3041 3544 
Q 2681 3656 2400 3656 
Q 1644 3656 1253 3187 
Q 863 2719 863 2041 
Q 863 1350 1313 856 
Q 1763 363 2556 363 
Q 2859 363 3344 497 
z
" transform="scale(0.015625)"/>
       </defs>
       <use xlink:href="#Candara-4b"/>
       <use xlink:href="#Candara-4f" x="59.179688"/>
       <use xlink:href="#Candara-50" x="128.564453"/>
       <use xlink:href="#Candara-32" x="183.837891"/>
       <use xlink:href="#Candara-33" x="230.029297"/>
       <use xlink:href="#Candara-30" x="278.613281"/>
       <use xlink:href="#Candara-50" x="333.544922"/>
       <use xlink:href="#Candara-20" x="388.818359"/>
       <use xlink:href="#Candara-43" x="410.498047"/>
       <use xlink:href="#Candara-33" x="465.429688"/>
      </g>
     </g>
    </g>
    <g id="xtick_3">
     <g id="text_3">
      <!-- KOP230P C5 -->
      <g style="fill: #262626" transform="translate(214.44375 586.22) rotate(-270) scale(0.22 -0.22)">
       <use xlink:href="#Candara-4b"/>
       <use xlink:href="#Candara-4f" x="59.179688"/>
       <use xlink:href="#Candara-50" x="128.564453"/>
       <use xlink:href="#Candara-32" x="183.837891"/>
       <use xlink:href="#Candara-33" x="230.029297"/>
       <use xlink:href="#Candara-30" x="278.613281"/>
       <use xlink:href="#Candara-50" x="333.544922"/>
       <use xlink:href="#Candara-20" x="388.818359"/>
       <use xlink:href="#Candara-43" x="410.498047"/>
       <use xlink:href="#Candara-35" x="465.429688"/>
      </g>
     </g>
    </g>
    <g id="xtick_4">
     <g id="text_4">
      <!-- KOPfs25 C1 -->
      <g style="fill: #262626" transform="translate(259.08375 586.22) rotate(-270) scale(0.22 -0.22)">
       <defs>
        <path id="Candara-66" d="M 2169 4434 
L 2078 4022 
Q 1891 4069 1703 4069 
Q 1416 4069 1314 3842 
Q 1213 3616 1213 2906 
Q 1522 2906 2078 2938 
L 2059 2472 
Q 1428 2491 1213 2491 
Q 1213 1069 1250 0 
L 691 0 
Q 734 1041 734 2491 
Q 544 2491 69 2472 
L 91 2931 
Q 522 2906 734 2906 
Q 734 3734 965 4111 
Q 1197 4488 1703 4488 
Q 1925 4488 2169 4434 
z
" transform="scale(0.015625)"/>
        <path id="Candara-73" d="M 2397 847 
Q 2397 -66 1231 -66 
Q 716 -66 269 38 
L 366 497 
Q 772 341 1247 341 
Q 1928 341 1928 728 
Q 1928 916 1776 1027 
Q 1625 1138 1275 1275 
Q 831 1450 631 1613 
Q 338 1853 338 2194 
Q 338 2550 606 2804 
Q 875 3059 1425 3059 
Q 1963 3059 2288 2969 
L 2191 2519 
Q 1853 2653 1409 2653 
Q 809 2653 809 2306 
Q 809 2131 943 2023 
Q 1078 1916 1469 1763 
Q 1891 1597 2094 1438 
Q 2397 1191 2397 847 
z
" transform="scale(0.015625)"/>
        <path id="Candara-31" d="M 1613 0 
L 1078 0 
Q 1113 659 1113 1369 
Q 1113 2191 1078 2581 
L 366 2225 
L 219 2497 
L 1344 3325 
L 1613 3325 
Q 1581 2316 1581 1369 
Q 1581 700 1613 0 
z
" transform="scale(0.015625)"/>
       </defs>
       <use xlink:href="#Candara-4b"/>
       <use xlink:href="#Candara-4f" x="59.179688"/>
       <use xlink:href="#Candara-50" x="128.564453"/>
       <use xlink:href="#Candara-66" x="183.837891"/>
       <use xlink:href="#Candara-73" x="217.724609"/>
       <use xlink:href="#Candara-32" x="259.619141"/>
       <use xlink:href="#Candara-35" x="305.810547"/>
       <use xlink:href="#Candara-20" x="354.931641"/>
       <use xlink:href="#Candara-43" x="376.611328"/>
       <use xlink:href="#Candara-31" x="431.542969"/>
      </g>
     </g>
    </g>
    <g id="xtick_5">
     <g id="text_5">
      <!-- KOPfs25 C3 -->
      <g style="fill: #262626" transform="translate(303.72375 586.22) rotate(-270) scale(0.22 -0.22)">
       <use xlink:href="#Candara-4b"/>
       <use xlink:href="#Candara-4f" x="59.179688"/>
       <use xlink:href="#Candara-50" x="128.564453"/>
       <use xlink:href="#Candara-66" x="183.837891"/>
       <use xlink:href="#Candara-73" x="217.724609"/>
       <use xlink:href="#Candara-32" x="259.619141"/>
       <use xlink:href="#Candara-35" x="305.810547"/>
       <use xlink:href="#Candara-20" x="354.931641"/>
       <use xlink:href="#Candara-43" x="376.611328"/>
       <use xlink:href="#Candara-33" x="431.542969"/>
      </g>
     </g>
    </g>
    <g id="xtick_6">
     <g id="text_6">
      <!-- KOEBA140 C3 -->
      <g style="fill: #262626" transform="translate(348.36375 586.22) rotate(-270) scale(0.22 -0.22)">
       <defs>
        <path id="Candara-45" d="M 3125 472 
L 3106 0 
L 588 0 
Q 631 969 631 2138 
Q 631 3238 588 4069 
L 2950 4069 
L 2925 3603 
Q 2066 3641 1103 3641 
Q 1122 3156 1122 2331 
Q 1953 2331 2603 2369 
L 2603 1903 
Q 1909 1931 1122 1931 
Q 1122 1128 1150 425 
Q 2188 425 3125 472 
z
" transform="scale(0.015625)"/>
        <path id="Candara-42" d="M 3441 1241 
Q 3441 634 2925 303 
Q 2422 -19 1544 -19 
Q 1300 -19 588 0 
Q 631 969 631 2138 
Q 631 3238 588 4069 
L 963 4069 
Q 1072 4069 1403 4078 
Q 1734 4088 1884 4088 
Q 3184 4088 3184 3191 
Q 3184 2491 2569 2259 
L 2569 2228 
Q 3441 2072 3441 1241 
z
M 2913 1188 
Q 2913 1956 1550 1956 
Q 1300 1956 1109 1938 
Q 1109 1103 1144 447 
Q 1263 419 1563 419 
Q 2316 419 2631 616 
Q 2913 794 2913 1188 
z
M 2659 3034 
Q 2659 3681 1788 3681 
Q 1350 3681 1078 3634 
Q 1103 3409 1103 2363 
Q 1256 2356 1441 2356 
Q 2059 2356 2341 2497 
Q 2659 2653 2659 3034 
z
" transform="scale(0.015625)"/>
        <path id="Candara-41" d="M 3909 0 
L 3250 0 
Q 3250 209 2856 1316 
L 1053 1316 
Q 666 225 666 0 
L 34 0 
Q 34 116 840 1998 
Q 1647 3881 1647 4069 
L 2372 4069 
Q 2372 3884 3140 2028 
Q 3909 172 3909 0 
z
M 2713 1725 
Q 1978 3559 1978 3675 
L 1944 3675 
Q 1944 3578 1184 1725 
L 2713 1725 
z
" transform="scale(0.015625)"/>
       </defs>
       <use xlink:href="#Candara-4b"/>
       <use xlink:href="#Candara-4f" x="59.179688"/>
       <use xlink:href="#Candara-45" x="128.564453"/>
       <use xlink:href="#Candara-42" x="180.615234"/>
       <use xlink:href="#Candara-41" x="239.208984"/>
       <use xlink:href="#Candara-31" x="300.830078"/>
       <use xlink:href="#Candara-34" x="335.791016"/>
       <use xlink:href="#Candara-30" x="389.111328"/>
       <use xlink:href="#Candara-20" x="444.042969"/>
       <use xlink:href="#Candara-43" x="465.722656"/>
       <use xlink:href="#Candara-33" x="520.654297"/>
      </g>
     </g>
    </g>
    <g id="xtick_7">
     <g id="text_7">
      <!-- KOEBA140 C4 -->
      <g style="fill: #262626" transform="translate(393.00375 586.22) rotate(-270) scale(0.22 -0.22)">
       <use xlink:href="#Candara-4b"/>
       <use xlink:href="#Candara-4f" x="59.179688"/>
       <use xlink:href="#Candara-45" x="128.564453"/>
       <use xlink:href="#Candara-42" x="180.615234"/>
       <use xlink:href="#Candara-41" x="239.208984"/>
       <use xlink:href="#Candara-31" x="300.830078"/>
       <use xlink:href="#Candara-34" x="335.791016"/>
       <use xlink:href="#Candara-30" x="389.111328"/>
       <use xlink:href="#Candara-20" x="444.042969"/>
       <use xlink:href="#Candara-43" x="465.722656"/>
       <use xlink:href="#Candara-34" x="520.654297"/>
      </g>
     </g>
    </g>
    <g id="xtick_8">
     <g id="text_8">
      <!-- KOEBA175 C6 -->
      <g style="fill: #262626" transform="translate(437.64375 586.22) rotate(-270) scale(0.22 -0.22)">
       <defs>
        <path id="Candara-37" d="M 2744 3297 
Q 2744 2719 2291 1703 
Q 2103 1281 1453 38 
Q 1003 -825 1003 -1031 
L 453 -966 
Q 453 -766 925 56 
Q 1741 1491 1794 1597 
Q 2266 2494 2266 2863 
Q 1591 2863 219 2781 
L 238 3297 
L 2744 3297 
z
" transform="scale(0.015625)"/>
        <path id="Candara-36" d="M 3156 1263 
Q 3156 697 2789 281 
Q 2422 -134 1756 -134 
Q 1184 -134 779 303 
Q 375 741 375 1591 
Q 375 4063 2563 4197 
L 2603 3834 
Q 1772 3750 1383 3348 
Q 994 2947 922 2128 
L 956 2128 
Q 1256 2544 1963 2544 
Q 2522 2544 2839 2164 
Q 3156 1784 3156 1263 
z
M 2613 1172 
Q 2613 1572 2367 1859 
Q 2122 2147 1647 2147 
Q 1200 2147 919 1781 
Q 919 978 1161 623 
Q 1403 269 1769 269 
Q 2163 269 2388 536 
Q 2613 803 2613 1172 
z
" transform="scale(0.015625)"/>
       </defs>
       <use xlink:href="#Candara-4b"/>
       <use xlink:href="#Candara-4f" x="59.179688"/>
       <use xlink:href="#Candara-45" x="128.564453"/>
       <use xlink:href="#Candara-42" x="180.615234"/>
       <use xlink:href="#Candara-41" x="239.208984"/>
       <use xlink:href="#Candara-31" x="300.830078"/>
       <use xlink:href="#Candara-37" x="335.791016"/>
       <use xlink:href="#Candara-35" x="383.056641"/>
       <use xlink:href="#Candara-20" x="432.177734"/>
       <use xlink:href="#Candara-43" x="453.857422"/>
       <use xlink:href="#Candara-36" x="508.789062"/>
      </g>
     </g>
    </g>
    <g id="xtick_9">
     <g id="text_9">
      <!-- KOEBA181 C1 -->
      <g style="fill: #262626" transform="translate(482.28375 586.22) rotate(-270) scale(0.22 -0.22)">
       <defs>
        <path id="Candara-38" d="M 3147 1156 
Q 3147 578 2730 256 
Q 2313 -66 1744 -66 
Q 1188 -66 781 243 
Q 375 553 375 1109 
Q 375 1475 606 1783 
Q 838 2091 1266 2272 
L 1266 2306 
Q 622 2703 622 3288 
Q 622 3756 965 4012 
Q 1309 4269 1784 4269 
Q 2247 4269 2586 4025 
Q 2925 3781 2925 3356 
Q 2925 3066 2744 2800 
Q 2563 2534 2241 2403 
L 2241 2369 
Q 3147 1859 3147 1156 
z
M 2628 1072 
Q 2628 1659 1659 2131 
Q 1322 2016 1105 1755 
Q 888 1494 888 1188 
Q 888 784 1148 567 
Q 1409 350 1772 350 
Q 2119 350 2373 544 
Q 2628 738 2628 1072 
z
M 2428 3288 
Q 2428 3591 2233 3752 
Q 2038 3913 1766 3913 
Q 1506 3913 1312 3770 
Q 1119 3628 1119 3384 
Q 1119 2878 1859 2525 
Q 2428 2778 2428 3288 
z
" transform="scale(0.015625)"/>
       </defs>
       <use xlink:href="#Candara-4b"/>
       <use xlink:href="#Candara-4f" x="59.179688"/>
       <use xlink:href="#Candara-45" x="128.564453"/>
       <use xlink:href="#Candara-42" x="180.615234"/>
       <use xlink:href="#Candara-41" x="239.208984"/>
       <use xlink:href="#Candara-31" x="300.830078"/>
       <use xlink:href="#Candara-38" x="335.791016"/>
       <use xlink:href="#Candara-31" x="390.820312"/>
       <use xlink:href="#Candara-20" x="425.78125"/>
       <use xlink:href="#Candara-43" x="447.460938"/>
       <use xlink:href="#Candara-31" x="502.392578"/>
      </g>
     </g>
    </g>
    <g id="xtick_10">
     <g id="text_10">
      <!-- KOEBA181 C2 -->
      <g style="fill: #262626" transform="translate(526.92375 586.22) rotate(-270) scale(0.22 -0.22)">
       <use xlink:href="#Candara-4b"/>
       <use xlink:href="#Candara-4f" x="59.179688"/>
       <use xlink:href="#Candara-45" x="128.564453"/>
       <use xlink:href="#Candara-42" x="180.615234"/>
       <use xlink:href="#Candara-41" x="239.208984"/>
       <use xlink:href="#Candara-31" x="300.830078"/>
       <use xlink:href="#Candara-38" x="335.791016"/>
       <use xlink:href="#Candara-31" x="390.820312"/>
       <use xlink:href="#Candara-20" x="425.78125"/>
       <use xlink:href="#Candara-43" x="447.460938"/>
       <use xlink:href="#Candara-32" x="502.392578"/>
      </g>
     </g>
    </g>
    <g id="xtick_11">
     <g id="text_11">
      <!-- KORH1 C1 -->
      <g style="fill: #262626" transform="translate(571.56375 586.22) rotate(-270) scale(0.22 -0.22)">
       <defs>
        <path id="Candara-52" d="M 3669 0 
L 3066 0 
Q 2766 897 2628 1188 
Q 2453 1553 2231 1659 
Q 2056 1744 1603 1744 
Q 1338 1744 1131 1738 
Q 1131 728 1169 0 
L 588 0 
Q 634 969 634 2138 
Q 634 3238 588 4069 
L 1028 4069 
Q 1169 4069 1384 4078 
Q 1600 4088 1878 4088 
Q 3247 4088 3247 3144 
Q 3247 2359 2478 2041 
L 2478 2009 
Q 2822 1906 3034 1531 
Q 3213 1219 3669 0 
z
M 2713 2931 
Q 2713 3675 1706 3675 
Q 1347 3675 1103 3634 
Q 1125 3091 1125 2156 
Q 1313 2150 1484 2150 
Q 2713 2150 2713 2931 
z
" transform="scale(0.015625)"/>
        <path id="Candara-48" d="M 3584 0 
L 2991 0 
Q 3022 1081 3022 1938 
L 1150 1938 
Q 1150 1244 1181 0 
L 588 0 
Q 631 1141 631 2138 
Q 631 3181 588 4069 
L 1181 4069 
Q 1144 3175 1144 2331 
L 3028 2331 
Q 3028 3009 2991 4069 
L 3584 4069 
Q 3538 3200 3538 2138 
Q 3538 972 3584 0 
z
" transform="scale(0.015625)"/>
       </defs>
       <use xlink:href="#Candara-4b"/>
       <use xlink:href="#Candara-4f" x="59.179688"/>
       <use xlink:href="#Candara-52" x="128.564453"/>
       <use xlink:href="#Candara-48" x="189.111328"/>
       <use xlink:href="#Candara-31" x="254.296875"/>
       <use xlink:href="#Candara-20" x="289.257812"/>
       <use xlink:href="#Candara-43" x="310.9375"/>
       <use xlink:href="#Candara-31" x="365.869141"/>
      </g>
     </g>
    </g>
    <g id="xtick_12">
     <g id="text_12">
      <!-- KORH2a C1 -->
      <g style="fill: #262626" transform="translate(616.20375 586.22) rotate(-270) scale(0.22 -0.22)">
       <defs>
        <path id="Candara-61" d="M 2759 0 
L 2269 -19 
Q 2231 134 2231 272 
L 2200 272 
Q 1816 -78 1153 -78 
Q 794 -78 534 133 
Q 275 344 275 734 
Q 275 1216 681 1508 
Q 1088 1800 2191 1816 
Q 2200 1891 2200 1988 
Q 2200 2372 1995 2500 
Q 1791 2628 1375 2628 
Q 884 2628 409 2506 
L 463 2938 
Q 931 3072 1541 3072 
Q 2097 3072 2400 2842 
Q 2703 2613 2703 2059 
Q 2703 1913 2689 1527 
Q 2675 1141 2675 1013 
Q 2675 444 2759 0 
z
M 2206 606 
Q 2191 1081 2191 1459 
Q 1603 1459 1297 1372 
Q 784 1216 784 775 
Q 784 350 1384 350 
Q 1900 350 2206 606 
z
" transform="scale(0.015625)"/>
       </defs>
       <use xlink:href="#Candara-4b"/>
       <use xlink:href="#Candara-4f" x="59.179688"/>
       <use xlink:href="#Candara-52" x="128.564453"/>
       <use xlink:href="#Candara-48" x="189.111328"/>
       <use xlink:href="#Candara-32" x="254.296875"/>
       <use xlink:href="#Candara-61" x="300.488281"/>
       <use xlink:href="#Candara-20" x="349.560547"/>
       <use xlink:href="#Candara-43" x="371.240234"/>
       <use xlink:href="#Candara-31" x="426.171875"/>
      </g>
     </g>
    </g>
    <g id="xtick_13">
     <g id="text_13">
      <!-- KORh2a C3 -->
      <g style="fill: #262626" transform="translate(660.84375 586.22) rotate(-270) scale(0.22 -0.22)">
       <defs>
        <path id="Candara-68" d="M 3059 0 
L 2491 0 
Q 2559 822 2559 1769 
Q 2559 2275 2370 2451 
Q 2181 2628 1847 2628 
Q 1378 2628 969 2306 
Q 969 600 994 0 
L 444 0 
Q 472 825 472 2331 
Q 472 3650 381 4397 
L 975 4428 
Q 950 3475 950 2659 
L 969 2659 
Q 1438 3072 1997 3072 
Q 2497 3072 2778 2839 
Q 3059 2606 3059 2022 
Q 3059 1963 3053 1789 
Q 3047 1616 3047 1484 
Q 3047 1034 3059 0 
z
" transform="scale(0.015625)"/>
       </defs>
       <use xlink:href="#Candara-4b"/>
       <use xlink:href="#Candara-4f" x="59.179688"/>
       <use xlink:href="#Candara-52" x="128.564453"/>
       <use xlink:href="#Candara-68" x="189.111328"/>
       <use xlink:href="#Candara-32" x="243.261719"/>
       <use xlink:href="#Candara-61" x="289.453125"/>
       <use xlink:href="#Candara-20" x="338.525391"/>
       <use xlink:href="#Candara-43" x="360.205078"/>
       <use xlink:href="#Candara-33" x="415.136719"/>
      </g>
     </g>
    </g>
    <g id="xtick_14">
     <g id="text_14">
      <!-- KORH4 C1 -->
      <g style="fill: #262626" transform="translate(705.48375 586.22) rotate(-270) scale(0.22 -0.22)">
       <use xlink:href="#Candara-4b"/>
       <use xlink:href="#Candara-4f" x="59.179688"/>
       <use xlink:href="#Candara-52" x="128.564453"/>
       <use xlink:href="#Candara-48" x="189.111328"/>
       <use xlink:href="#Candara-34" x="254.296875"/>
       <use xlink:href="#Candara-20" x="307.617188"/>
       <use xlink:href="#Candara-43" x="329.296875"/>
       <use xlink:href="#Candara-31" x="384.228516"/>
      </g>
     </g>
    </g>
    <g id="xtick_15">
     <g id="text_15">
      <!-- Barseq -->
      <g style="fill: #262626" transform="translate(750.12375 586.22) rotate(-270) scale(0.22 -0.22)">
       <defs>
        <path id="Candara-72" d="M 2300 2969 
L 2159 2472 
Q 1916 2569 1706 2569 
Q 1119 2569 944 2009 
Q 944 572 963 0 
L 409 0 
Q 459 991 459 1538 
Q 459 2278 313 2956 
L 859 3034 
Q 919 2691 919 2575 
L 944 2575 
Q 1281 3072 1731 3072 
Q 1969 3072 2300 2969 
z
" transform="scale(0.015625)"/>
        <path id="Candara-65" d="M 2975 1834 
Q 2975 1703 2963 1472 
L 816 1434 
Q 847 978 1169 670 
Q 1491 363 2022 363 
Q 2497 363 2913 478 
L 2859 38 
Q 2553 -84 1975 -84 
Q 1163 -84 736 359 
Q 309 803 309 1441 
Q 309 2122 698 2614 
Q 1088 3106 1744 3106 
Q 2347 3106 2661 2750 
Q 2975 2394 2975 1834 
z
M 2453 1828 
Q 2453 2706 1719 2706 
Q 969 2706 834 1794 
L 2453 1828 
z
" transform="scale(0.015625)"/>
        <path id="Candara-71" d="M 3144 -1422 
L 2588 -1422 
Q 2616 -566 2616 272 
L 2581 272 
Q 2259 -84 1600 -84 
Q 1009 -84 659 352 
Q 309 788 309 1388 
Q 309 2063 690 2570 
Q 1072 3078 1769 3078 
Q 2338 3078 2603 2872 
L 2628 2872 
L 2756 2969 
L 3144 3003 
Q 3100 1953 3100 897 
Q 3100 -366 3144 -1422 
z
M 2616 684 
Q 2616 1716 2588 2484 
Q 2297 2700 1891 2700 
Q 1375 2700 1120 2337 
Q 866 1975 866 1466 
Q 866 1003 1109 672 
Q 1353 341 1794 341 
Q 2356 341 2616 684 
z
" transform="scale(0.015625)"/>
       </defs>
       <use xlink:href="#Candara-42"/>
       <use xlink:href="#Candara-61" x="58.59375"/>
       <use xlink:href="#Candara-72" x="107.666016"/>
       <use xlink:href="#Candara-73" x="143.115234"/>
       <use xlink:href="#Candara-65" x="185.009766"/>
       <use xlink:href="#Candara-71" x="236.328125"/>
      </g>
     </g>
    </g>
    <g id="text_16">
     <!--   -->
     <g style="fill: #262626" transform="translate(440.1975 733.111875) scale(0.24 -0.24)">
      <use xlink:href="#Candara-20"/>
     </g>
    </g>
   </g>
   <g id="matplotlib.axis_2">
    <g id="ytick_1">
     <g id="line2d_1">
      <path d="M 108 576.72 
L 777.6 576.72 
" clip-path="url(#pc2aff01f82)" style="fill: none; stroke: #ffffff; stroke-linecap: round"/>
     </g>
     <g id="text_17">
      <!-- 0 -->
      <g style="fill: #262626" transform="translate(86.41375 584.330625) scale(0.22 -0.22)">
       <use xlink:href="#Candara-30"/>
      </g>
     </g>
    </g>
    <g id="ytick_2">
     <g id="line2d_2">
      <path d="M 108 505.44 
L 777.6 505.44 
" clip-path="url(#pc2aff01f82)" style="fill: none; stroke: #ffffff; stroke-linecap: round"/>
     </g>
     <g id="text_18">
      <!-- 2 -->
      <g style="fill: #262626" transform="translate(88.33875 513.050625) scale(0.22 -0.22)">
       <use xlink:href="#Candara-32"/>
      </g>
     </g>
    </g>
    <g id="ytick_3">
     <g id="line2d_3">
      <path d="M 108 434.16 
L 777.6 434.16 
" clip-path="url(#pc2aff01f82)" style="fill: none; stroke: #ffffff; stroke-linecap: round"/>
     </g>
     <g id="text_19">
      <!-- 4 -->
      <g style="fill: #262626" transform="translate(86.767813 441.770625) scale(0.22 -0.22)">
       <use xlink:href="#Candara-34"/>
      </g>
     </g>
    </g>
    <g id="ytick_4">
     <g id="line2d_4">
      <path d="M 108 362.88 
L 777.6 362.88 
" clip-path="url(#pc2aff01f82)" style="fill: none; stroke: #ffffff; stroke-linecap: round"/>
     </g>
     <g id="text_20">
      <!-- 6 -->
      <g style="fill: #262626" transform="translate(86.362188 370.490625) scale(0.22 -0.22)">
       <use xlink:href="#Candara-36"/>
      </g>
     </g>
    </g>
    <g id="ytick_5">
     <g id="line2d_5">
      <path d="M 108 291.6 
L 777.6 291.6 
" clip-path="url(#pc2aff01f82)" style="fill: none; stroke: #ffffff; stroke-linecap: round"/>
     </g>
     <g id="text_21">
      <!-- 8 -->
      <g style="fill: #262626" transform="translate(86.393125 299.210625) scale(0.22 -0.22)">
       <use xlink:href="#Candara-38"/>
      </g>
     </g>
    </g>
    <g id="ytick_6">
     <g id="line2d_6">
      <path d="M 108 220.32 
L 777.6 220.32 
" clip-path="url(#pc2aff01f82)" style="fill: none; stroke: #ffffff; stroke-linecap: round"/>
     </g>
     <g id="text_22">
      <!-- 10 -->
      <g style="fill: #262626" transform="translate(78.720625 227.930625) scale(0.22 -0.22)">
       <use xlink:href="#Candara-31"/>
       <use xlink:href="#Candara-30" x="34.960938"/>
      </g>
     </g>
    </g>
    <g id="ytick_7">
     <g id="line2d_7">
      <path d="M 108 149.04 
L 777.6 149.04 
" clip-path="url(#pc2aff01f82)" style="fill: none; stroke: #ffffff; stroke-linecap: round"/>
     </g>
     <g id="text_23">
      <!-- 12 -->
      <g style="fill: #262626" transform="translate(80.645625 156.650625) scale(0.22 -0.22)">
       <use xlink:href="#Candara-31"/>
       <use xlink:href="#Candara-32" x="34.960938"/>
      </g>
     </g>
    </g>
    <g id="ytick_8">
     <g id="line2d_8">
      <path d="M 108 77.76 
L 777.6 77.76 
" clip-path="url(#pc2aff01f82)" style="fill: none; stroke: #ffffff; stroke-linecap: round"/>
     </g>
     <g id="text_24">
      <!-- 14 -->
      <g style="fill: #262626" transform="translate(79.074687 85.370625) scale(0.22 -0.22)">
       <use xlink:href="#Candara-31"/>
       <use xlink:href="#Candara-34" x="34.960938"/>
      </g>
     </g>
    </g>
    <g id="text_25">
     <!-- Mean invasion rate -->
     <g style="fill: #262626" transform="translate(69.365625 423.451875) rotate(-90) scale(0.24 -0.24)">
      <defs>
       <path id="Candara-4d" d="M 4944 0 
L 4356 0 
Q 4356 697 4259 2015 
Q 4163 3334 4156 3597 
L 4125 3597 
Q 3813 2581 3333 1392 
Q 2853 203 2853 0 
L 2431 0 
Q 2431 219 1984 1417 
Q 1538 2616 1419 3022 
Q 1300 3428 1256 3597 
L 1225 3597 
Q 1216 3169 1102 1869 
Q 988 569 988 0 
L 450 0 
Q 450 31 662 1720 
Q 875 3409 875 4069 
L 1697 4069 
Q 1697 3725 2197 2350 
Q 2697 975 2697 684 
L 2728 684 
Q 2728 975 3290 2354 
Q 3853 3734 3853 4069 
L 4656 4069 
Q 4656 3409 4800 1731 
Q 4944 53 4944 0 
z
" transform="scale(0.015625)"/>
       <path id="Candara-6e" d="M 3059 0 
L 2491 0 
Q 2559 822 2559 1794 
Q 2559 2275 2364 2451 
Q 2169 2628 1806 2628 
Q 1363 2628 988 2306 
Q 988 1241 1000 0 
L 431 0 
Q 484 1063 484 1538 
Q 484 2269 347 2956 
L 897 3034 
L 956 2653 
L 981 2653 
Q 1444 3072 1972 3072 
Q 2491 3072 2775 2842 
Q 3059 2613 3059 2025 
Q 3059 1966 3053 1791 
Q 3047 1616 3047 1556 
Q 3047 1034 3059 0 
z
" transform="scale(0.015625)"/>
       <path id="Candara-69" d="M 978 0 
L 413 0 
Q 456 625 456 1428 
Q 456 2331 347 2944 
L 972 3028 
Q 934 2375 934 1428 
Q 934 678 978 0 
z
M 1109 3906 
Q 1109 3747 1006 3630 
Q 903 3513 716 3513 
Q 556 3513 467 3614 
Q 378 3716 378 3859 
Q 378 4016 484 4131 
Q 591 4247 778 4247 
Q 931 4247 1020 4145 
Q 1109 4044 1109 3906 
z
" transform="scale(0.015625)"/>
       <path id="Candara-76" d="M 2938 2969 
Q 2938 2816 2305 1492 
Q 1672 169 1672 0 
L 1253 0 
Q 1253 219 695 1530 
Q 138 2841 138 2969 
L 744 2969 
Q 744 2819 1150 1778 
Q 1556 738 1556 588 
L 1584 588 
Q 1584 731 1970 1734 
Q 2356 2738 2356 2969 
L 2938 2969 
z
" transform="scale(0.015625)"/>
       <path id="Candara-6f" d="M 3266 1575 
Q 3266 775 2806 326 
Q 2347 -122 1725 -122 
Q 1144 -122 726 275 
Q 309 672 309 1394 
Q 309 2200 770 2653 
Q 1231 3106 1853 3106 
Q 2434 3106 2850 2704 
Q 3266 2303 3266 1575 
z
M 2725 1466 
Q 2725 1953 2479 2333 
Q 2234 2713 1781 2713 
Q 1331 2713 1089 2353 
Q 847 1994 847 1519 
Q 847 1028 1092 650 
Q 1338 272 1794 272 
Q 2244 272 2484 633 
Q 2725 994 2725 1466 
z
" transform="scale(0.015625)"/>
       <path id="Candara-74" d="M 2125 431 
L 2088 25 
Q 1841 -66 1622 -66 
Q 1059 -66 853 220 
Q 647 506 647 1244 
Q 647 1722 653 2491 
Q 478 2491 138 2472 
L 156 2925 
Q 453 2906 688 2906 
Q 688 3094 719 3797 
L 1209 3847 
Q 1156 3191 1156 2906 
Q 1463 2906 2056 2938 
L 2034 2472 
Q 1472 2491 1131 2491 
Q 1125 2019 1125 1428 
Q 1125 784 1261 576 
Q 1397 369 1766 369 
Q 1888 369 2125 431 
z
" transform="scale(0.015625)"/>
      </defs>
      <use xlink:href="#Candara-4d"/>
      <use xlink:href="#Candara-65" x="85.351562"/>
      <use xlink:href="#Candara-61" x="136.669922"/>
      <use xlink:href="#Candara-6e" x="185.742188"/>
      <use xlink:href="#Candara-20" x="239.892578"/>
      <use xlink:href="#Candara-69" x="261.572266"/>
      <use xlink:href="#Candara-6e" x="283.349609"/>
      <use xlink:href="#Candara-76" x="337.5"/>
      <use xlink:href="#Candara-61" x="385.546875"/>
      <use xlink:href="#Candara-73" x="434.619141"/>
      <use xlink:href="#Candara-69" x="476.513672"/>
      <use xlink:href="#Candara-6f" x="498.291016"/>
      <use xlink:href="#Candara-6e" x="554.150391"/>
      <use xlink:href="#Candara-20" x="608.300781"/>
      <use xlink:href="#Candara-72" x="629.980469"/>
      <use xlink:href="#Candara-61" x="665.429688"/>
      <use xlink:href="#Candara-74" x="714.501953"/>
      <use xlink:href="#Candara-65" x="750.390625"/>
     </g>
    </g>
   </g>
   <g id="patch_3">
    <path d="M 112.464 456.02507 
L 148.176 456.02507 
L 148.176 435.390563 
L 112.464 435.390563 
L 112.464 456.02507 
z
" clip-path="url(#pc2aff01f82)" style="fill: #98b196; stroke: #474747; stroke-width: 1.5; stroke-linejoin: miter"/>
   </g>
   <g id="patch_4">
    <path d="M 157.104 479.07194 
L 192.816 479.07194 
L 192.816 447.179882 
L 157.104 447.179882 
L 157.104 479.07194 
z
" clip-path="url(#pc2aff01f82)" style="fill: #d3bc98; stroke: #474747; stroke-width: 1.5; stroke-linejoin: miter"/>
   </g>
   <g id="patch_5">
    <path d="M 201.744 474.259509 
L 237.456 474.259509 
L 237.456 451.698309 
L 201.744 451.698309 
L 201.744 474.259509 
z
" clip-path="url(#pc2aff01f82)" style="fill: #d3bc98; stroke: #474747; stroke-width: 1.5; stroke-linejoin: miter"/>
   </g>
   <g id="patch_6">
    <path d="M 246.384 405.299487 
L 282.096 405.299487 
L 282.096 344.477932 
L 246.384 344.477932 
L 246.384 405.299487 
z
" clip-path="url(#pc2aff01f82)" style="fill: #ccad91; stroke: #474747; stroke-width: 1.5; stroke-linejoin: miter"/>
   </g>
   <g id="patch_7">
    <path d="M 291.024 393.172669 
L 326.736 393.172669 
L 326.736 356.33576 
L 291.024 356.33576 
L 291.024 393.172669 
z
" clip-path="url(#pc2aff01f82)" style="fill: #ccad91; stroke: #474747; stroke-width: 1.5; stroke-linejoin: miter"/>
   </g>
   <g id="patch_8">
    <path d="M 335.664 494.347098 
L 371.376 494.347098 
L 371.376 484.433947 
L 335.664 484.433947 
L 335.664 494.347098 
z
" clip-path="url(#pc2aff01f82)" style="fill: #8fa9b0; stroke: #474747; stroke-width: 1.5; stroke-linejoin: miter"/>
   </g>
   <g id="patch_9">
    <path d="M 380.304 506.04421 
L 416.016 506.04421 
L 416.016 486.535191 
L 380.304 486.535191 
L 380.304 506.04421 
z
" clip-path="url(#pc2aff01f82)" style="fill: #8fa9b0; stroke: #474747; stroke-width: 1.5; stroke-linejoin: miter"/>
   </g>
   <g id="patch_10">
    <path d="M 424.944 444.322091 
L 460.656 444.322091 
L 460.656 405.64485 
L 424.944 405.64485 
L 424.944 444.322091 
z
" clip-path="url(#pc2aff01f82)" style="fill: #627f8c; stroke: #474747; stroke-width: 1.5; stroke-linejoin: miter"/>
   </g>
   <g id="patch_11">
    <path d="M 469.584 401.367106 
L 505.296 401.367106 
L 505.296 338.026707 
L 469.584 338.026707 
L 469.584 401.367106 
z
" clip-path="url(#pc2aff01f82)" style="fill: #a6b9b8; stroke: #474747; stroke-width: 1.5; stroke-linejoin: miter"/>
   </g>
   <g id="patch_12">
    <path d="M 514.224 413.863657 
L 549.936 413.863657 
L 549.936 348.418652 
L 514.224 348.418652 
L 514.224 413.863657 
z
" clip-path="url(#pc2aff01f82)" style="fill: #a6b9b8; stroke: #474747; stroke-width: 1.5; stroke-linejoin: miter"/>
   </g>
   <g id="patch_13">
    <path d="M 558.864 510.820776 
L 594.576 510.820776 
L 594.576 491.408875 
L 558.864 491.408875 
L 558.864 510.820776 
z
" clip-path="url(#pc2aff01f82)" style="fill: #bdbeb5; stroke: #474747; stroke-width: 1.5; stroke-linejoin: miter"/>
   </g>
   <g id="patch_14">
    <path d="M 603.504 422.867631 
L 639.216 422.867631 
L 639.216 390.211212 
L 603.504 390.211212 
L 603.504 422.867631 
z
" clip-path="url(#pc2aff01f82)" style="fill: #a7c0b3; stroke: #474747; stroke-width: 1.5; stroke-linejoin: miter"/>
   </g>
   <g id="patch_15">
    <path d="M 648.144 462.513955 
L 683.856 462.513955 
L 683.856 446.292094 
L 648.144 446.292094 
L 648.144 462.513955 
z
" clip-path="url(#pc2aff01f82)" style="fill: #a7c0b3; stroke: #474747; stroke-width: 1.5; stroke-linejoin: miter"/>
   </g>
   <g id="patch_16">
    <path d="M 692.784 478.983244 
L 728.496 478.983244 
L 728.496 462.968257 
L 692.784 462.968257 
L 692.784 478.983244 
z
" clip-path="url(#pc2aff01f82)" style="fill: #dae1dd; stroke: #474747; stroke-width: 1.5; stroke-linejoin: miter"/>
   </g>
   <g id="patch_17">
    <path d="M 737.424 420.075515 
L 773.136 420.075515 
L 773.136 392.615425 
L 737.424 392.615425 
L 737.424 420.075515 
z
" clip-path="url(#pc2aff01f82)" style="fill: #bebebd; stroke: #474747; stroke-width: 1.5; stroke-linejoin: miter"/>
   </g>
   <g id="patch_18">
    <path d="M 130.32 576.72 
L 130.32 576.72 
L 130.32 576.72 
L 130.32 576.72 
z
" clip-path="url(#pc2aff01f82)" style="fill: #bebebd; stroke: #474747; stroke-width: 0.75; stroke-linejoin: miter"/>
   </g>
   <g id="patch_19">
    <path d="M 130.32 576.72 
L 130.32 576.72 
L 130.32 576.72 
L 130.32 576.72 
z
" clip-path="url(#pc2aff01f82)" style="fill: #8fa9b0; stroke: #474747; stroke-width: 0.75; stroke-linejoin: miter"/>
   </g>
   <g id="patch_20">
    <path d="M 130.32 576.72 
L 130.32 576.72 
L 130.32 576.72 
L 130.32 576.72 
z
" clip-path="url(#pc2aff01f82)" style="fill: #dae1dd; stroke: #474747; stroke-width: 0.75; stroke-linejoin: miter"/>
   </g>
   <g id="patch_21">
    <path d="M 130.32 576.72 
L 130.32 576.72 
L 130.32 576.72 
L 130.32 576.72 
z
" clip-path="url(#pc2aff01f82)" style="fill: #ccad91; stroke: #474747; stroke-width: 0.75; stroke-linejoin: miter"/>
   </g>
   <g id="patch_22">
    <path d="M 130.32 576.72 
L 130.32 576.72 
L 130.32 576.72 
L 130.32 576.72 
z
" clip-path="url(#pc2aff01f82)" style="fill: #a6b9b8; stroke: #474747; stroke-width: 0.75; stroke-linejoin: miter"/>
   </g>
   <g id="patch_23">
    <path d="M 130.32 576.72 
L 130.32 576.72 
L 130.32 576.72 
L 130.32 576.72 
z
" clip-path="url(#pc2aff01f82)" style="fill: #627f8c; stroke: #474747; stroke-width: 0.75; stroke-linejoin: miter"/>
   </g>
   <g id="patch_24">
    <path d="M 130.32 576.72 
L 130.32 576.72 
L 130.32 576.72 
L 130.32 576.72 
z
" clip-path="url(#pc2aff01f82)" style="fill: #a7c0b3; stroke: #474747; stroke-width: 0.75; stroke-linejoin: miter"/>
   </g>
   <g id="patch_25">
    <path d="M 130.32 576.72 
L 130.32 576.72 
L 130.32 576.72 
L 130.32 576.72 
z
" clip-path="url(#pc2aff01f82)" style="fill: #d3bc98; stroke: #474747; stroke-width: 0.75; stroke-linejoin: miter"/>
   </g>
   <g id="patch_26">
    <path d="M 130.32 576.72 
L 130.32 576.72 
L 130.32 576.72 
L 130.32 576.72 
z
" clip-path="url(#pc2aff01f82)" style="fill: #a7c0b3; stroke: #474747; stroke-width: 0.75; stroke-linejoin: miter"/>
   </g>
   <g id="patch_27">
    <path d="M 130.32 576.72 
L 130.32 576.72 
L 130.32 576.72 
L 130.32 576.72 
z
" clip-path="url(#pc2aff01f82)" style="fill: #bdbeb5; stroke: #474747; stroke-width: 0.75; stroke-linejoin: miter"/>
   </g>
   <g id="patch_28">
    <path d="M 130.32 576.72 
L 130.32 576.72 
L 130.32 576.72 
L 130.32 576.72 
z
" clip-path="url(#pc2aff01f82)" style="fill: #98b196; stroke: #474747; stroke-width: 0.75; stroke-linejoin: miter"/>
   </g>
   <g id="line2d_9">
    <path d="M 130.32 456.02507 
L 130.32 473.468842 
" clip-path="url(#pc2aff01f82)" style="fill: none; stroke: #474747; stroke-width: 1.5; stroke-linecap: round"/>
   </g>
   <g id="line2d_10">
    <path d="M 130.32 435.390563 
L 130.32 428.512927 
" clip-path="url(#pc2aff01f82)" style="fill: none; stroke: #474747; stroke-width: 1.5; stroke-linecap: round"/>
   </g>
   <g id="line2d_11">
    <path d="M 121.392 473.468842 
L 139.248 473.468842 
" clip-path="url(#pc2aff01f82)" style="fill: none; stroke: #474747; stroke-width: 1.5; stroke-linecap: round"/>
   </g>
   <g id="line2d_12">
    <path d="M 121.392 428.512927 
L 139.248 428.512927 
" clip-path="url(#pc2aff01f82)" style="fill: none; stroke: #474747; stroke-width: 1.5; stroke-linecap: round"/>
   </g>
   <g id="line2d_13">
    <path d="M 174.96 479.07194 
L 174.96 487.398037 
" clip-path="url(#pc2aff01f82)" style="fill: none; stroke: #474747; stroke-width: 1.5; stroke-linecap: round"/>
   </g>
   <g id="line2d_14">
    <path d="M 174.96 447.179882 
L 174.96 438.264087 
" clip-path="url(#pc2aff01f82)" style="fill: none; stroke: #474747; stroke-width: 1.5; stroke-linecap: round"/>
   </g>
   <g id="line2d_15">
    <path d="M 166.032 487.398037 
L 183.888 487.398037 
" clip-path="url(#pc2aff01f82)" style="fill: none; stroke: #474747; stroke-width: 1.5; stroke-linecap: round"/>
   </g>
   <g id="line2d_16">
    <path d="M 166.032 438.264087 
L 183.888 438.264087 
" clip-path="url(#pc2aff01f82)" style="fill: none; stroke: #474747; stroke-width: 1.5; stroke-linecap: round"/>
   </g>
   <g id="line2d_17">
    <path d="M 219.6 474.259509 
L 219.6 496.632053 
" clip-path="url(#pc2aff01f82)" style="fill: none; stroke: #474747; stroke-width: 1.5; stroke-linecap: round"/>
   </g>
   <g id="line2d_18">
    <path d="M 219.6 451.698309 
L 219.6 446.775562 
" clip-path="url(#pc2aff01f82)" style="fill: none; stroke: #474747; stroke-width: 1.5; stroke-linecap: round"/>
   </g>
   <g id="line2d_19">
    <path d="M 210.672 496.632053 
L 228.528 496.632053 
" clip-path="url(#pc2aff01f82)" style="fill: none; stroke: #474747; stroke-width: 1.5; stroke-linecap: round"/>
   </g>
   <g id="line2d_20">
    <path d="M 210.672 446.775562 
L 228.528 446.775562 
" clip-path="url(#pc2aff01f82)" style="fill: none; stroke: #474747; stroke-width: 1.5; stroke-linecap: round"/>
   </g>
   <g id="line2d_21">
    <path d="M 264.24 405.299487 
L 264.24 426.679884 
" clip-path="url(#pc2aff01f82)" style="fill: none; stroke: #474747; stroke-width: 1.5; stroke-linecap: round"/>
   </g>
   <g id="line2d_22">
    <path d="M 264.24 344.477932 
L 264.24 296.590618 
" clip-path="url(#pc2aff01f82)" style="fill: none; stroke: #474747; stroke-width: 1.5; stroke-linecap: round"/>
   </g>
   <g id="line2d_23">
    <path d="M 255.312 426.679884 
L 273.168 426.679884 
" clip-path="url(#pc2aff01f82)" style="fill: none; stroke: #474747; stroke-width: 1.5; stroke-linecap: round"/>
   </g>
   <g id="line2d_24">
    <path d="M 255.312 296.590618 
L 273.168 296.590618 
" clip-path="url(#pc2aff01f82)" style="fill: none; stroke: #474747; stroke-width: 1.5; stroke-linecap: round"/>
   </g>
   <g id="line2d_25">
    <path d="M 308.88 393.172669 
L 308.88 420.81239 
" clip-path="url(#pc2aff01f82)" style="fill: none; stroke: #474747; stroke-width: 1.5; stroke-linecap: round"/>
   </g>
   <g id="line2d_26">
    <path d="M 308.88 356.33576 
L 308.88 340.828557 
" clip-path="url(#pc2aff01f82)" style="fill: none; stroke: #474747; stroke-width: 1.5; stroke-linecap: round"/>
   </g>
   <g id="line2d_27">
    <path d="M 299.952 420.81239 
L 317.808 420.81239 
" clip-path="url(#pc2aff01f82)" style="fill: none; stroke: #474747; stroke-width: 1.5; stroke-linecap: round"/>
   </g>
   <g id="line2d_28">
    <path d="M 299.952 340.828557 
L 317.808 340.828557 
" clip-path="url(#pc2aff01f82)" style="fill: none; stroke: #474747; stroke-width: 1.5; stroke-linecap: round"/>
   </g>
   <g id="line2d_29">
    <path d="M 353.52 494.347098 
L 353.52 501.119887 
" clip-path="url(#pc2aff01f82)" style="fill: none; stroke: #474747; stroke-width: 1.5; stroke-linecap: round"/>
   </g>
   <g id="line2d_30">
    <path d="M 353.52 484.433947 
L 353.52 472.297166 
" clip-path="url(#pc2aff01f82)" style="fill: none; stroke: #474747; stroke-width: 1.5; stroke-linecap: round"/>
   </g>
   <g id="line2d_31">
    <path d="M 344.592 501.119887 
L 362.448 501.119887 
" clip-path="url(#pc2aff01f82)" style="fill: none; stroke: #474747; stroke-width: 1.5; stroke-linecap: round"/>
   </g>
   <g id="line2d_32">
    <path d="M 344.592 472.297166 
L 362.448 472.297166 
" clip-path="url(#pc2aff01f82)" style="fill: none; stroke: #474747; stroke-width: 1.5; stroke-linecap: round"/>
   </g>
   <g id="line2d_33">
    <path d="M 398.16 506.04421 
L 398.16 520.27863 
" clip-path="url(#pc2aff01f82)" style="fill: none; stroke: #474747; stroke-width: 1.5; stroke-linecap: round"/>
   </g>
   <g id="line2d_34">
    <path d="M 398.16 486.535191 
L 398.16 485.149265 
" clip-path="url(#pc2aff01f82)" style="fill: none; stroke: #474747; stroke-width: 1.5; stroke-linecap: round"/>
   </g>
   <g id="line2d_35">
    <path d="M 389.232 520.27863 
L 407.088 520.27863 
" clip-path="url(#pc2aff01f82)" style="fill: none; stroke: #474747; stroke-width: 1.5; stroke-linecap: round"/>
   </g>
   <g id="line2d_36">
    <path d="M 389.232 485.149265 
L 407.088 485.149265 
" clip-path="url(#pc2aff01f82)" style="fill: none; stroke: #474747; stroke-width: 1.5; stroke-linecap: round"/>
   </g>
   <g id="line2d_37">
    <path d="M 442.8 444.322091 
L 442.8 474.963797 
" clip-path="url(#pc2aff01f82)" style="fill: none; stroke: #474747; stroke-width: 1.5; stroke-linecap: round"/>
   </g>
   <g id="line2d_38">
    <path d="M 442.8 405.64485 
L 442.8 386.668398 
" clip-path="url(#pc2aff01f82)" style="fill: none; stroke: #474747; stroke-width: 1.5; stroke-linecap: round"/>
   </g>
   <g id="line2d_39">
    <path d="M 433.872 474.963797 
L 451.728 474.963797 
" clip-path="url(#pc2aff01f82)" style="fill: none; stroke: #474747; stroke-width: 1.5; stroke-linecap: round"/>
   </g>
   <g id="line2d_40">
    <path d="M 433.872 386.668398 
L 451.728 386.668398 
" clip-path="url(#pc2aff01f82)" style="fill: none; stroke: #474747; stroke-width: 1.5; stroke-linecap: round"/>
   </g>
   <g id="line2d_41">
    <path d="M 487.44 401.367106 
L 487.44 414.310465 
" clip-path="url(#pc2aff01f82)" style="fill: none; stroke: #474747; stroke-width: 1.5; stroke-linecap: round"/>
   </g>
   <g id="line2d_42">
    <path d="M 487.44 338.026707 
L 487.44 332.91441 
" clip-path="url(#pc2aff01f82)" style="fill: none; stroke: #474747; stroke-width: 1.5; stroke-linecap: round"/>
   </g>
   <g id="line2d_43">
    <path d="M 478.512 414.310465 
L 496.368 414.310465 
" clip-path="url(#pc2aff01f82)" style="fill: none; stroke: #474747; stroke-width: 1.5; stroke-linecap: round"/>
   </g>
   <g id="line2d_44">
    <path d="M 478.512 332.91441 
L 496.368 332.91441 
" clip-path="url(#pc2aff01f82)" style="fill: none; stroke: #474747; stroke-width: 1.5; stroke-linecap: round"/>
   </g>
   <g id="line2d_45">
    <path d="M 532.08 413.863657 
L 532.08 430.131182 
" clip-path="url(#pc2aff01f82)" style="fill: none; stroke: #474747; stroke-width: 1.5; stroke-linecap: round"/>
   </g>
   <g id="line2d_46">
    <path d="M 532.08 348.418652 
L 532.08 334.84962 
" clip-path="url(#pc2aff01f82)" style="fill: none; stroke: #474747; stroke-width: 1.5; stroke-linecap: round"/>
   </g>
   <g id="line2d_47">
    <path d="M 523.152 430.131182 
L 541.008 430.131182 
" clip-path="url(#pc2aff01f82)" style="fill: none; stroke: #474747; stroke-width: 1.5; stroke-linecap: round"/>
   </g>
   <g id="line2d_48">
    <path d="M 523.152 334.84962 
L 541.008 334.84962 
" clip-path="url(#pc2aff01f82)" style="fill: none; stroke: #474747; stroke-width: 1.5; stroke-linecap: round"/>
   </g>
   <g id="line2d_49">
    <path d="M 576.72 510.820776 
L 576.72 515.453253 
" clip-path="url(#pc2aff01f82)" style="fill: none; stroke: #474747; stroke-width: 1.5; stroke-linecap: round"/>
   </g>
   <g id="line2d_50">
    <path d="M 576.72 491.408875 
L 576.72 477.149559 
" clip-path="url(#pc2aff01f82)" style="fill: none; stroke: #474747; stroke-width: 1.5; stroke-linecap: round"/>
   </g>
   <g id="line2d_51">
    <path d="M 567.792 515.453253 
L 585.648 515.453253 
" clip-path="url(#pc2aff01f82)" style="fill: none; stroke: #474747; stroke-width: 1.5; stroke-linecap: round"/>
   </g>
   <g id="line2d_52">
    <path d="M 567.792 477.149559 
L 585.648 477.149559 
" clip-path="url(#pc2aff01f82)" style="fill: none; stroke: #474747; stroke-width: 1.5; stroke-linecap: round"/>
   </g>
   <g id="line2d_53">
    <path d="M 621.36 422.867631 
L 621.36 428.296344 
" clip-path="url(#pc2aff01f82)" style="fill: none; stroke: #474747; stroke-width: 1.5; stroke-linecap: round"/>
   </g>
   <g id="line2d_54">
    <path d="M 621.36 390.211212 
L 621.36 349.894819 
" clip-path="url(#pc2aff01f82)" style="fill: none; stroke: #474747; stroke-width: 1.5; stroke-linecap: round"/>
   </g>
   <g id="line2d_55">
    <path d="M 612.432 428.296344 
L 630.288 428.296344 
" clip-path="url(#pc2aff01f82)" style="fill: none; stroke: #474747; stroke-width: 1.5; stroke-linecap: round"/>
   </g>
   <g id="line2d_56">
    <path d="M 612.432 349.894819 
L 630.288 349.894819 
" clip-path="url(#pc2aff01f82)" style="fill: none; stroke: #474747; stroke-width: 1.5; stroke-linecap: round"/>
   </g>
   <g id="line2d_57">
    <path d="M 666 462.513955 
L 666 476.824163 
" clip-path="url(#pc2aff01f82)" style="fill: none; stroke: #474747; stroke-width: 1.5; stroke-linecap: round"/>
   </g>
   <g id="line2d_58">
    <path d="M 666 446.292094 
L 666 424.149227 
" clip-path="url(#pc2aff01f82)" style="fill: none; stroke: #474747; stroke-width: 1.5; stroke-linecap: round"/>
   </g>
   <g id="line2d_59">
    <path d="M 657.072 476.824163 
L 674.928 476.824163 
" clip-path="url(#pc2aff01f82)" style="fill: none; stroke: #474747; stroke-width: 1.5; stroke-linecap: round"/>
   </g>
   <g id="line2d_60">
    <path d="M 657.072 424.149227 
L 674.928 424.149227 
" clip-path="url(#pc2aff01f82)" style="fill: none; stroke: #474747; stroke-width: 1.5; stroke-linecap: round"/>
   </g>
   <g id="line2d_61">
    <path d="M 710.64 478.983244 
L 710.64 499.151591 
" clip-path="url(#pc2aff01f82)" style="fill: none; stroke: #474747; stroke-width: 1.5; stroke-linecap: round"/>
   </g>
   <g id="line2d_62">
    <path d="M 710.64 462.968257 
L 710.64 460.465541 
" clip-path="url(#pc2aff01f82)" style="fill: none; stroke: #474747; stroke-width: 1.5; stroke-linecap: round"/>
   </g>
   <g id="line2d_63">
    <path d="M 701.712 499.151591 
L 719.568 499.151591 
" clip-path="url(#pc2aff01f82)" style="fill: none; stroke: #474747; stroke-width: 1.5; stroke-linecap: round"/>
   </g>
   <g id="line2d_64">
    <path d="M 701.712 460.465541 
L 719.568 460.465541 
" clip-path="url(#pc2aff01f82)" style="fill: none; stroke: #474747; stroke-width: 1.5; stroke-linecap: round"/>
   </g>
   <g id="line2d_65">
    <path d="M 755.28 420.075515 
L 755.28 446.295391 
" clip-path="url(#pc2aff01f82)" style="fill: none; stroke: #474747; stroke-width: 1.5; stroke-linecap: round"/>
   </g>
   <g id="line2d_66">
    <path d="M 755.28 392.615425 
L 755.28 364.607613 
" clip-path="url(#pc2aff01f82)" style="fill: none; stroke: #474747; stroke-width: 1.5; stroke-linecap: round"/>
   </g>
   <g id="line2d_67">
    <path d="M 746.352 446.295391 
L 764.208 446.295391 
" clip-path="url(#pc2aff01f82)" style="fill: none; stroke: #474747; stroke-width: 1.5; stroke-linecap: round"/>
   </g>
   <g id="line2d_68">
    <path d="M 746.352 364.607613 
L 764.208 364.607613 
" clip-path="url(#pc2aff01f82)" style="fill: none; stroke: #474747; stroke-width: 1.5; stroke-linecap: round"/>
   </g>
   <g id="line2d_69">
    <path d="M 112.464 447.570996 
L 148.176 447.570996 
" clip-path="url(#pc2aff01f82)" style="fill: none; stroke: #474747; stroke-width: 1.5; stroke-linecap: round"/>
   </g>
   <g id="line2d_70">
    <path d="M 157.104 454.325216 
L 192.816 454.325216 
" clip-path="url(#pc2aff01f82)" style="fill: none; stroke: #474747; stroke-width: 1.5; stroke-linecap: round"/>
   </g>
   <g id="line2d_71">
    <path d="M 201.744 461.261366 
L 237.456 461.261366 
" clip-path="url(#pc2aff01f82)" style="fill: none; stroke: #474747; stroke-width: 1.5; stroke-linecap: round"/>
   </g>
   <g id="line2d_72">
    <path d="M 246.384 371.291926 
L 282.096 371.291926 
" clip-path="url(#pc2aff01f82)" style="fill: none; stroke: #474747; stroke-width: 1.5; stroke-linecap: round"/>
   </g>
   <g id="line2d_73">
    <path d="M 291.024 386.547308 
L 326.736 386.547308 
" clip-path="url(#pc2aff01f82)" style="fill: none; stroke: #474747; stroke-width: 1.5; stroke-linecap: round"/>
   </g>
   <g id="line2d_74">
    <path d="M 335.664 492.056723 
L 371.376 492.056723 
" clip-path="url(#pc2aff01f82)" style="fill: none; stroke: #474747; stroke-width: 1.5; stroke-linecap: round"/>
   </g>
   <g id="line2d_75">
    <path d="M 380.304 499.505683 
L 416.016 499.505683 
" clip-path="url(#pc2aff01f82)" style="fill: none; stroke: #474747; stroke-width: 1.5; stroke-linecap: round"/>
   </g>
   <g id="line2d_76">
    <path d="M 424.944 422.863443 
L 460.656 422.863443 
" clip-path="url(#pc2aff01f82)" style="fill: none; stroke: #474747; stroke-width: 1.5; stroke-linecap: round"/>
   </g>
   <g id="line2d_77">
    <path d="M 469.584 377.801306 
L 505.296 377.801306 
" clip-path="url(#pc2aff01f82)" style="fill: none; stroke: #474747; stroke-width: 1.5; stroke-linecap: round"/>
   </g>
   <g id="line2d_78">
    <path d="M 514.224 381.589151 
L 549.936 381.589151 
" clip-path="url(#pc2aff01f82)" style="fill: none; stroke: #474747; stroke-width: 1.5; stroke-linecap: round"/>
   </g>
   <g id="line2d_79">
    <path d="M 558.864 499.134231 
L 594.576 499.134231 
" clip-path="url(#pc2aff01f82)" style="fill: none; stroke: #474747; stroke-width: 1.5; stroke-linecap: round"/>
   </g>
   <g id="line2d_80">
    <path d="M 603.504 402.096454 
L 639.216 402.096454 
" clip-path="url(#pc2aff01f82)" style="fill: none; stroke: #474747; stroke-width: 1.5; stroke-linecap: round"/>
   </g>
   <g id="line2d_81">
    <path d="M 648.144 456.306894 
L 683.856 456.306894 
" clip-path="url(#pc2aff01f82)" style="fill: none; stroke: #474747; stroke-width: 1.5; stroke-linecap: round"/>
   </g>
   <g id="line2d_82">
    <path d="M 692.784 470.597502 
L 728.496 470.597502 
" clip-path="url(#pc2aff01f82)" style="fill: none; stroke: #474747; stroke-width: 1.5; stroke-linecap: round"/>
   </g>
   <g id="line2d_83">
    <path d="M 737.424 405.337748 
L 773.136 405.337748 
" clip-path="url(#pc2aff01f82)" style="fill: none; stroke: #474747; stroke-width: 1.5; stroke-linecap: round"/>
   </g>
   <g id="patch_29">
    <path d="M 108 576.72 
L 108 77.76 
" style="fill: none; stroke: #ffffff; stroke-width: 1.25; stroke-linejoin: miter; stroke-linecap: square"/>
   </g>
   <g id="patch_30">
    <path d="M 777.6 576.72 
L 777.6 77.76 
" style="fill: none; stroke: #ffffff; stroke-width: 1.25; stroke-linejoin: miter; stroke-linecap: square"/>
   </g>
   <g id="patch_31">
    <path d="M 108 576.72 
L 777.6 576.72 
" style="fill: none; stroke: #ffffff; stroke-width: 1.25; stroke-linejoin: miter; stroke-linecap: square"/>
   </g>
   <g id="patch_32">
    <path d="M 108 77.76 
L 777.6 77.76 
" style="fill: none; stroke: #ffffff; stroke-width: 1.25; stroke-linejoin: miter; stroke-linecap: square"/>
   </g>
   <g id="legend_1"/>
  </g>
 </g>
 <defs>
  <clipPath id="pc2aff01f82">
   <rect x="108" y="77.76" width="669.6" height="498.96"/>
  </clipPath>
 </defs>
</svg>
